<?xml version="1.0" encoding="UTF-8"?>
<svg width="256px" height="256px" viewBox="0 0 256 256" version="1.1" xmlns="http://www.w3.org/2000/svg" xmlns:xlink="http://www.w3.org/1999/xlink">
    <title>favicon</title>
    <style>
        @media (prefers-color-scheme: dark) {
          #Shape {
            fill: #FFFFFF;
          }
        }
      </style>
    <g id="favicon" stroke="none" fill="none" xlink:href="#path-1" fill-rule="evenodd">
        <path d="M236.063587,53.843752 L236.063587,56.6128542 L127.777783,56.6128542 C23.1566284,56.6128542 19.4915303,56.5574526 19.3804624,55.6159724 C19.3249183,55.0621605 19.49151,54.3975659 19.7691695,54.2314244 C20.0468291,54.0098976 68.8034371,53.843752 236.063587,53.843752 Z M253.278806,62.704846 L252.278726,64.2555396 C251.779705,65.0862778 249.003517,69.1845264 241.061948,80.980801 L236.063587,80.980801 L236.063587,134.147353 L233.287399,134.147353 L233.287399,89.2881829 L221.626593,89.2881829 L221.626593,134.147353 L211.073819,134.147353 L211.073819,80.980801 L204.411374,80.980801 L204.134367,133.870548 L201.634575,134.147353 L201.634575,89.2881829 L189.972955,89.2881829 L189.972955,134.147353 L179.422014,134.147353 L179.422014,80.980801 L172.202906,80.980801 L172.202906,134.147353 L169.42631,134.147353 L169.42631,89.2881829 L158.319927,89.2881829 L158.042309,133.870548 L147.491367,133.870548 L147.213749,80.980801 L140.549878,80.980801 L140.549878,134.147353 L137.773283,134.147353 L137.773283,89.2881829 L126.111866,89.2881829 L126.111866,134.147353 L115.560925,134.147353 L115.560925,80.980801 L108.897055,80.980801 L108.619436,133.870548 L105.84284,133.870548 L105.565221,89.2881829 L94.4588387,89.2881829 L94.4588387,134.147353 L83.9078975,134.147353 L83.9078975,80.980801 L76.6887895,80.980801 L76.6887895,134.147353 L73.9121939,134.147353 L73.9121939,89.2881829 L62.2507773,89.2881829 L62.2507773,134.147353 L51.6996324,134.147353 L51.6996324,80.980801 L45.0359658,80.980801 L44.758347,133.870548 L42.2593702,134.147353 L42.2593702,89.2881829 L30.5977499,89.2881829 L30.5977499,134.147353 L20.0468291,134.147353 L20.0468291,80.980801 L15.0489977,80.980801 L9.32927581,72.5074385 C6.16399344,67.9107387 3.38741817,63.7571089 3.16528237,63.4248218 C2.83209904,62.8709895 27.9323648,62.704846 253.278806,62.704846 Z M20.0468291,140.793299 L44.758347,141.070103 L44.758347,163.222985 L43.481056,163.388986 C42.2593702,163.49979 42.2593702,163.388986 42.2593702,151.315725 L30.5977499,151.315725 L30.5977499,163.49979 L20.0468291,163.49979 L20.0468291,140.793299 Z M76.633388,140.793299 L76.633388,163.49979 L73.8567923,163.49979 L73.8567923,151.315725 L62.1951721,151.315725 L62.1951721,163.49979 L51.9218497,163.222985 L51.8662445,152.755758 C51.8108429,146.940631 51.8662445,141.900923 51.9774549,141.513315 C52.144067,140.959503 54.9760642,140.793299 76.633388,140.793299 Z M83.9078975,140.793299 L108.56383,141.070103 L108.56383,163.222985 L83.8524959,163.49979 L83.9078975,140.793299 Z M140.272259,141.125504 L140.549878,163.555191 L115.560925,163.555191 L115.449714,152.534151 C115.394313,146.497622 115.560925,141.402512 115.838544,141.180906 C116.116163,140.959503 121.724755,140.904102 140.272259,141.125504 Z M172.202906,140.8487 L172.202906,163.555191 L147.491367,163.278387 L147.380361,152.755758 C147.324755,146.996033 147.380361,141.956324 147.491367,141.568513 C147.657979,141.014701 150.49018,140.8487 172.202906,140.8487 Z M179.422014,140.793299 L204.134367,141.125504 L204.134367,163.278387 L202.74505,163.278387 C201.356753,163.278387 201.356753,163.278387 201.079134,151.371126 L189.972955,151.371126 L189.972955,163.555191 L179.422014,163.555191 L179.422014,140.793299 Z M235.731585,141.070103 L236.008593,163.49979 L233.232405,163.49979 L233.232405,151.315725 L221.569562,151.315725 L221.569562,163.49979 L211.018825,163.49979 L210.96383,152.534151 C210.908836,146.497622 211.073819,141.347111 211.352863,141.180906 C211.574877,140.959503 217.184285,140.8487 235.731585,141.070103 Z M12.2168986,169.591924 L243.783142,169.591924 L243.783142,172.360983 L12.2168986,172.360983 L12.2168986,169.591924 Z M6.10844931,178.452914 L249.891571,178.452914 L249.891571,181.221973 L6.10844931,181.221973 L6.10844931,178.452914 Z M0,187.314108 L56.364362,187.314108 C96.0137485,187.314108 113.617186,187.480109 115.671932,187.923321 C117.282243,188.310928 119.78122,189.141544 121.225123,189.861561 C122.668822,190.581578 124.77897,192.13221 127.944395,195.344482 L130.221154,193.184432 C131.44284,191.966209 134.108225,190.249168 139.661417,187.590912 L255.722992,187.590912 L256,190.083167 L198.135926,190.249168 C143.82631,190.359971 140.105647,190.415373 137.9955,191.356996 C136.773814,191.910807 134.830279,193.018431 133.663994,193.849047 C132.497914,194.679867 130.887399,196.285901 130.054542,197.448926 C129.221482,198.611952 128.33302,199.553371 127.999796,199.553371 C127.722177,199.553371 126.778111,198.611952 126.000656,197.448926 C125.167799,196.285901 123.557284,194.679867 122.391203,193.849047 C121.225123,193.018431 119.225982,191.910807 118.004296,191.356996 C115.94955,190.415373 112.228888,190.359971 0,190.083167 L0,187.314108 Z" id="Shape" fill="#000000"></path>
    </g>
</svg>