<svg width="234" height="193" viewBox="0 0 234 193" fill="none" xmlns="http://www.w3.org/2000/svg">
<path d="M189.285 77.6255V76.1683H126.083C120.674 76.1683 117.759 79.1814 116.549 80.8115C115.339 79.1814 112.4 76.1683 107.016 76.1683H43.814V77.6255H107.016C113.388 77.6255 115.784 82.2934 115.882 82.4909L116.08 82.9108H116.994L117.191 82.4909C117.29 82.2934 119.711 77.6255 126.058 77.6255H189.285ZM185.852 71.0558H47.2717V72.513H185.852V71.0558ZM61.0038 62.3375V55.5455H67.6722V62.3375H69.1294V49.6674H55.101V62.3375H61.0038ZM79.1567 62.3375V55.5455H85.8251V62.3375H87.2823V49.6674H73.2539V62.3375H79.1567ZM91.4315 49.6674V62.3375H105.46V49.6674H91.4315ZM109.56 49.6674V62.3375H123.588V49.6674H109.56ZM127.713 49.6674V62.3375H141.741V49.6674H127.713ZM151.719 62.3375V55.5455H158.388V62.3375H159.869V49.6674H145.866V62.3375H151.719ZM182.443 65.968H50.7047V67.4252H182.419V65.968H182.443ZM169.847 62.3375V55.5455H176.516V62.3375H177.998V49.6674H163.969V62.3375H169.847ZM180.912 15.1398L187.926 4.81609H45.1971L52.2113 15.1398H55.1257V45.5429H61.0038V20.0547H67.6722V45.5429H69.1294V15.1398H73.2539V45.5429H79.132V20.0547H85.8251V45.5429H87.2823V15.1398H91.4068V45.5429H97.2849V20.0547H103.953V45.5429H105.411V15.1398H109.51V45.5429H115.389V20.0547H122.057V45.5429H123.514V15.1398H127.639V45.5429H133.517V20.0547H140.185V45.5429H141.642V15.1398H145.767V45.5429H151.645V20.0547H158.313V45.5429H159.771V15.1398H163.87V45.5429H169.749V20.0547H176.442V45.5429H177.899V15.1398H180.912ZM55.0022 1.45718H178.096V0H55.0022V1.45718Z" fill="black"/>
<path d="M37.022 191.582C38.2322 190.841 39.146 189.828 39.8129 188.494C40.455 187.161 40.7761 185.629 40.7761 183.851C40.7761 182.073 40.455 180.69 39.8129 179.455C39.1707 178.22 38.2569 177.257 37.0467 176.565C35.8365 175.874 34.3793 175.528 32.6999 175.528C31.0204 175.528 29.5632 175.874 28.3531 176.59C27.1429 177.306 26.2043 178.294 25.5622 179.578C24.92 180.863 24.5743 182.369 24.5743 184.098C24.5743 185.827 24.8953 187.432 25.5375 188.717C26.1796 190.001 27.1182 190.989 28.3284 191.68C29.5386 192.372 30.9957 192.718 32.6999 192.718C34.404 192.718 35.8118 192.347 37.022 191.631V191.582ZM28.8964 189.482C28.0567 188.124 27.6368 186.272 27.6368 183.901C27.6368 181.53 28.0814 179.825 28.9705 178.541C29.8596 177.257 31.0698 176.639 32.6258 176.639C33.6384 176.639 34.5522 176.936 35.2932 177.504C36.0588 178.072 36.6515 178.912 37.0714 179.998C37.4913 181.085 37.7136 182.394 37.7136 183.901C37.7136 186.445 37.2937 188.346 36.4787 189.606C35.6389 190.865 34.404 191.483 32.7246 191.483C31.0451 191.483 29.7361 190.816 28.8964 189.458V189.482ZM50.0131 191.483C49.371 191.483 48.8276 191.433 48.4571 191.335C48.062 191.236 47.7903 191.038 47.6421 190.767C47.4939 190.47 47.3951 190.05 47.3951 189.482V184.419H50.0378C50.754 184.419 51.3221 184.469 51.7173 184.567C52.1124 184.666 52.3841 184.889 52.557 185.21C52.7052 185.531 52.7793 186.049 52.7793 186.741H53.7425V180.887H52.7793C52.7793 181.554 52.7052 182.073 52.557 182.419C52.4088 182.765 52.1371 183.012 51.7173 183.135C51.3221 183.258 50.754 183.333 50.0378 183.333H47.3951V177.109H51.0751C51.8901 177.109 52.557 177.158 53.0262 177.257C53.4955 177.356 53.866 177.504 54.1129 177.726C54.3599 177.948 54.5575 178.245 54.681 178.64C54.8045 179.035 54.928 179.529 55.0515 180.122H56.0147L55.8665 175.849H42.258V176.714C42.8507 176.714 43.3447 176.763 43.6904 176.886C44.0362 176.985 44.2832 177.207 44.4314 177.479C44.5796 177.776 44.6537 178.22 44.6537 178.788V189.359C44.6537 189.976 44.5796 190.446 44.4561 190.767C44.3326 191.088 44.1103 191.285 43.7645 191.384C43.4188 191.483 42.9248 191.532 42.258 191.532V192.397H50.0378V191.532L50.0131 191.483ZM67.7462 191.483C67.1534 191.483 66.7336 191.433 66.4619 191.31C66.1902 191.211 66.0667 190.964 66.0667 190.594C66.0667 190.347 66.0914 190.124 66.1655 189.902C66.2396 189.68 66.289 189.482 66.3631 189.285L67.4745 186.617L67.6721 186.074L70.5123 179.01H70.5864L73.3032 186.074L73.4761 186.617L74.464 188.914C74.6122 189.285 74.7357 189.606 74.8098 189.878C74.8839 190.149 74.9333 190.396 74.9333 190.569C74.9333 190.865 74.8345 191.063 74.6616 191.187C74.4887 191.31 74.2664 191.384 74.0194 191.433C73.7478 191.458 73.5008 191.483 73.2785 191.483V192.347H80.4409V191.483C79.7987 191.483 79.3048 191.31 78.959 190.964C78.6133 190.618 78.2428 190.026 77.8723 189.211L72.093 175.701H70.5617L65.1776 188.47C64.8318 189.334 64.5355 190.001 64.2638 190.421C64.0168 190.841 63.7451 191.137 63.4487 191.285C63.1524 191.433 62.8066 191.508 62.3373 191.508V192.372H67.7462V191.483ZM67.4745 185.802L67.0793 186.914H73.9206L73.5255 185.802H67.4745ZM94.3211 190.94C95.3584 189.779 95.9018 188.05 95.9018 185.753V179.825C95.9018 178.961 95.9512 178.294 96.0499 177.85C96.1487 177.405 96.371 177.109 96.6921 176.936C97.0379 176.763 97.5565 176.689 98.2975 176.689V175.824H91.9995V176.689C92.7157 176.689 93.2344 176.763 93.5555 176.936C93.9012 177.109 94.0988 177.43 94.1976 177.874C94.2964 178.344 94.3458 179.01 94.3458 179.9V186.074C94.3458 187.803 93.9753 189.038 93.2591 189.803C92.5182 190.569 91.3574 190.94 89.752 190.94C88.5665 190.94 87.6527 190.742 86.9858 190.371C86.319 190.001 85.8497 189.433 85.5534 188.692C85.2817 187.951 85.1335 187.037 85.1335 185.951V179.035C85.1335 178.393 85.1829 177.924 85.3064 177.578C85.4299 177.232 85.6521 177.01 86.0226 176.886C86.3684 176.763 86.887 176.689 87.5786 176.689V175.824H79.9469V176.689C80.6138 176.689 81.1324 176.763 81.4782 176.886C81.824 177.01 82.0462 177.232 82.1944 177.553C82.3179 177.874 82.392 178.319 82.392 178.912V186.099C82.392 188.42 82.9354 190.1 83.9974 191.137C85.0594 192.174 86.7882 192.693 89.1345 192.693C91.4808 192.693 93.2838 192.125 94.3211 190.964V190.94ZM100.767 192.125C100.891 191.977 101.039 191.903 101.237 191.903C101.434 191.903 101.656 191.977 101.953 192.1C102.249 192.224 102.644 192.347 103.138 192.471C103.657 192.594 104.324 192.668 105.188 192.668C106.25 192.668 107.189 192.495 108.028 192.15C108.868 191.804 109.51 191.285 109.98 190.594C110.449 189.902 110.696 189.062 110.696 188.075C110.696 187.309 110.548 186.667 110.276 186.099C110.004 185.531 109.634 185.061 109.165 184.642C108.695 184.222 108.201 183.876 107.633 183.555C107.065 183.234 106.522 182.937 105.954 182.616C105.312 182.271 104.719 181.925 104.126 181.579C103.558 181.233 103.089 180.863 102.718 180.418C102.373 179.974 102.2 179.455 102.2 178.838C102.2 178.097 102.422 177.553 102.891 177.183C103.361 176.812 104.027 176.639 104.892 176.639C106.077 176.639 106.942 176.936 107.534 177.578C108.127 178.22 108.596 179.257 108.967 180.715H109.856L109.708 175.602H108.942C108.868 175.849 108.769 176.022 108.646 176.121C108.522 176.22 108.349 176.269 108.177 176.269C107.979 176.269 107.757 176.195 107.485 176.071C107.238 175.948 106.892 175.824 106.472 175.701C106.053 175.577 105.485 175.528 104.768 175.528C103.805 175.528 102.965 175.676 102.2 175.997C101.434 176.318 100.841 176.788 100.397 177.38C99.9522 177.973 99.7299 178.739 99.7299 179.653C99.7299 180.566 99.9275 181.357 100.323 181.974C100.718 182.592 101.237 183.11 101.879 183.555C102.521 183.975 103.188 184.395 103.879 184.765C104.546 185.136 105.188 185.506 105.806 185.852C106.423 186.222 106.917 186.642 107.312 187.111C107.707 187.581 107.88 188.198 107.88 188.939C107.88 189.532 107.757 190.026 107.485 190.396C107.213 190.767 106.843 191.038 106.398 191.211C105.929 191.384 105.41 191.458 104.793 191.458C104.003 191.458 103.336 191.359 102.792 191.137C102.249 190.915 101.78 190.52 101.385 189.902C100.99 189.309 100.668 188.42 100.372 187.284H99.4336L99.6558 192.718H100.545C100.545 192.471 100.644 192.298 100.767 192.15V192.125ZM123.292 191.508C122.575 191.508 122.032 191.458 121.686 191.335C121.341 191.236 121.094 190.989 120.995 190.618C120.896 190.248 120.822 189.705 120.822 188.939V177.01H122.254C123.193 177.01 123.884 177.109 124.354 177.306C124.798 177.504 125.144 177.85 125.342 178.344C125.539 178.838 125.737 179.554 125.91 180.468H126.848L126.651 175.8H112.276L112.005 180.468H112.943C113.116 179.554 113.314 178.838 113.511 178.344C113.709 177.85 114.055 177.504 114.499 177.306C114.969 177.109 115.66 177.01 116.574 177.01H118.031V188.939C118.031 189.705 117.982 190.248 117.858 190.618C117.735 190.989 117.512 191.211 117.167 191.335C116.821 191.433 116.302 191.508 115.561 191.508V192.372H123.292V191.508ZM136.184 191.508C135.468 191.508 134.924 191.458 134.579 191.359C134.233 191.261 133.986 191.038 133.862 190.693C133.739 190.347 133.69 189.853 133.69 189.161V184.864H134.332C134.776 184.864 135.122 184.913 135.32 185.012C135.517 185.111 135.764 185.333 136.011 185.728C136.258 186.123 136.505 186.494 136.752 186.84C136.974 187.21 137.246 187.605 137.567 188.075C137.863 188.544 138.234 189.112 138.654 189.803C139.074 190.495 139.617 191.335 140.284 192.372H144.927V191.508C144.359 191.508 143.865 191.433 143.47 191.285C143.075 191.137 142.68 190.791 142.309 190.223C141.395 188.914 140.654 187.877 140.086 187.087C139.543 186.296 139.074 185.704 138.753 185.308C138.407 184.913 138.086 184.617 137.814 184.444V184.345C138.53 184.172 139.197 183.925 139.815 183.604C140.432 183.283 140.975 182.814 141.371 182.246C141.79 181.678 141.988 180.912 141.988 179.974C141.988 178.912 141.692 178.072 141.124 177.479C140.556 176.886 139.765 176.467 138.777 176.22C137.789 175.973 136.678 175.849 135.468 175.849H128.626V176.714C129.293 176.714 129.787 176.763 130.133 176.886C130.454 177.01 130.676 177.207 130.775 177.479C130.874 177.751 130.923 178.121 130.923 178.591V189.161C130.923 189.877 130.874 190.396 130.75 190.717C130.627 191.063 130.405 191.261 130.084 191.359C129.763 191.458 129.269 191.508 128.626 191.508V192.372H136.184V191.508ZM133.69 176.961C133.961 176.936 134.233 176.911 134.505 176.886C134.776 176.886 135.048 176.886 135.32 176.886C136.604 176.886 137.542 177.183 138.135 177.751C138.728 178.319 139.024 179.109 139.024 180.097C139.024 181.011 138.851 181.727 138.481 182.246C138.11 182.765 137.617 183.16 136.974 183.382C136.332 183.629 135.542 183.752 134.653 183.802H133.69V176.936V176.961ZM151.447 191.508C150.855 191.508 150.435 191.458 150.163 191.335C149.891 191.236 149.768 190.989 149.768 190.618C149.768 190.371 149.793 190.149 149.867 189.927C149.941 189.705 149.99 189.507 150.064 189.309L151.176 186.642L151.373 186.099L154.213 179.035H154.288L157.004 186.099L157.177 186.642L158.165 188.939C158.313 189.309 158.437 189.631 158.511 189.902C158.585 190.174 158.634 190.421 158.634 190.594C158.634 190.89 158.536 191.088 158.363 191.211C158.19 191.335 157.968 191.409 157.721 191.458C157.449 191.483 157.202 191.508 156.98 191.508V192.372H164.142V191.508C163.5 191.508 163.006 191.335 162.66 190.989C162.314 190.643 161.944 190.05 161.573 189.235L155.794 175.726H154.263L148.879 188.494C148.533 189.359 148.237 190.026 147.965 190.446C147.718 190.865 147.446 191.162 147.15 191.31C146.854 191.458 146.508 191.532 146.038 191.532V192.397H151.447V191.508ZM151.176 185.827L150.78 186.938H157.622L157.227 185.827H151.176ZM179.677 187.334H178.714C178.467 188.05 178.245 188.667 178.047 189.161C177.849 189.655 177.578 190.05 177.281 190.347C176.985 190.643 176.565 190.841 176.071 190.964C175.577 191.088 174.91 191.162 174.145 191.162H172.86C172.119 191.162 171.625 191.063 171.354 190.89C171.082 190.717 170.959 190.347 170.959 189.779V179.159C170.959 178.516 171.033 177.998 171.156 177.652C171.28 177.306 171.527 177.059 171.872 176.911C172.218 176.763 172.737 176.689 173.428 176.689V175.824H165.896V176.689C166.562 176.689 167.081 176.763 167.402 176.886C167.748 177.01 167.946 177.257 168.044 177.627C168.143 177.973 168.192 178.492 168.192 179.134V189.161C168.192 189.803 168.143 190.322 168.044 190.643C167.946 190.989 167.723 191.211 167.402 191.31C167.081 191.433 166.562 191.483 165.871 191.483V192.347H178.961L179.702 187.309L179.677 187.334ZM188.815 191.508C188.099 191.508 187.556 191.433 187.21 191.31C186.864 191.186 186.642 190.94 186.568 190.569C186.469 190.199 186.42 189.68 186.42 188.939V179.233C186.42 178.591 186.469 178.072 186.543 177.677C186.617 177.306 186.839 177.035 187.16 176.886C187.506 176.738 188.05 176.664 188.84 176.664V175.8H181.208V176.664C181.999 176.664 182.567 176.738 182.888 176.886C183.234 177.035 183.431 177.306 183.505 177.677C183.579 178.047 183.629 178.566 183.629 179.233V188.939C183.629 189.655 183.579 190.199 183.48 190.569C183.382 190.94 183.159 191.162 182.838 191.31C182.493 191.433 181.949 191.508 181.184 191.508V192.372H188.791V191.508H188.815ZM195.879 191.508C195.286 191.508 194.866 191.458 194.595 191.335C194.323 191.236 194.199 190.989 194.199 190.618C194.199 190.371 194.224 190.149 194.298 189.927C194.372 189.705 194.422 189.507 194.496 189.309L195.607 186.642L195.805 186.099L198.645 179.035H198.719L201.436 186.099L201.609 186.642L202.597 188.939C202.745 189.309 202.868 189.631 202.942 189.902C203.017 190.174 203.066 190.421 203.066 190.594C203.066 190.89 202.967 191.088 202.794 191.211C202.621 191.335 202.399 191.409 202.152 191.458C201.88 191.483 201.633 191.508 201.411 191.508V192.372H208.574V191.508C207.931 191.508 207.437 191.335 207.092 190.989C206.746 190.643 206.375 190.05 206.005 189.235L200.226 175.726H198.694L193.31 188.494C192.964 189.359 192.668 190.026 192.396 190.446C192.149 190.865 191.878 191.162 191.581 191.31C191.285 191.458 190.939 191.532 190.47 191.532V192.397H195.879V191.508ZM195.607 185.827L195.212 186.938H202.053L201.658 185.827H195.607Z" fill="black"/>
<path d="M46.5059 101.409C46.5059 100.323 46.58 99.4336 46.7282 98.7421C46.8764 98.0506 47.1727 97.5319 47.642 97.1861C48.1113 96.8404 48.8028 96.6675 49.766 96.6675V95.4573H41.1712V96.6675C42.2085 96.6675 42.9741 96.8404 43.4434 97.1614C43.9126 97.5072 44.209 98.0012 44.3572 98.668C44.5054 99.3349 44.5795 100.199 44.5795 101.261V112.548H44.4066L31.4155 95.4326H24.5248V96.6428C25.0681 96.6428 25.5374 96.6922 25.9079 96.8157C26.2783 96.9145 26.6241 97.1367 26.9699 97.4331C27.3156 97.7295 27.7108 98.1987 28.1307 98.8162L28.921 100.323H30.0324L44.456 119.217H46.5553V101.434L46.5059 101.409ZM33.0456 117.685C32.1564 117.685 31.4896 117.587 31.0203 117.364C30.5511 117.142 30.23 116.747 30.0571 116.129C29.8842 115.512 29.8101 114.623 29.8101 113.437V97.7542H27.8343V112.598C27.8343 113.783 27.7602 114.746 27.5873 115.512C27.4144 116.253 27.0934 116.821 26.6241 117.167C26.1548 117.512 25.4386 117.685 24.4754 117.685V118.896H33.0456V117.685ZM57.3236 117.685C56.4838 117.685 55.8911 117.611 55.4959 117.463C55.1255 117.315 54.9279 116.969 54.9279 116.45C54.9279 116.129 54.9773 115.808 55.0761 115.487C55.1749 115.166 55.2736 114.87 55.3724 114.598L56.9531 110.819L57.2495 110.029L61.2752 100.002H61.374L65.2269 110.029L65.4739 110.819L66.857 114.079C67.0792 114.598 67.2274 115.067 67.3509 115.463C67.4497 115.858 67.5238 116.179 67.5238 116.45C67.5238 116.846 67.4003 117.142 67.1533 117.315C66.9064 117.488 66.5853 117.611 66.2148 117.661C65.8443 117.71 65.4986 117.735 65.1528 117.735V118.945H75.3283V117.735C74.4145 117.735 73.723 117.488 73.229 116.994C72.7351 116.5 72.2164 115.66 71.6977 114.499L63.4734 95.3338H61.2999L53.6683 113.462C53.1743 114.697 52.7298 115.611 52.384 116.228C52.0382 116.846 51.6431 117.241 51.2479 117.438C50.8527 117.636 50.3094 117.735 49.6672 117.735V118.945H57.3483V117.735L57.3236 117.685ZM65.4986 109.609H56.9284L56.3604 111.19H66.0666L65.4986 109.609ZM90.6657 117.685C89.6531 117.685 88.8875 117.611 88.3688 117.463C87.8749 117.315 87.5538 116.969 87.3809 116.475C87.2327 115.957 87.1586 115.166 87.1586 114.104V97.1861H89.1839C90.5175 97.1861 91.5055 97.3343 92.1476 97.606C92.7897 97.9024 93.259 98.3963 93.5307 99.0879C93.827 99.7794 94.0987 100.792 94.3457 102.101H95.6794L95.383 95.4573H74.9826L74.5874 102.101H75.8964C76.1681 100.792 76.4397 99.7794 76.7114 99.0879C77.0078 98.3963 77.477 97.9024 78.1192 97.606C78.786 97.3096 79.7493 97.1861 81.0582 97.1861H83.1329V114.104C83.1329 115.166 83.0588 115.957 82.8859 116.475C82.713 116.994 82.3919 117.315 81.898 117.463C81.404 117.611 80.6631 117.685 79.6258 117.685V118.896H90.5916V117.685H90.6657ZM108.992 117.685C107.979 117.685 107.213 117.587 106.719 117.414C106.225 117.241 105.929 116.895 105.781 116.376C105.657 115.858 105.583 115.092 105.583 114.079V100.298C105.583 99.3595 105.633 98.6433 105.756 98.1C105.855 97.5566 106.151 97.1861 106.645 96.9638C107.139 96.7416 107.93 96.6428 109.016 96.6428V95.4326H98.1986V96.6428C99.31 96.6428 100.125 96.7416 100.594 96.9638C101.064 97.1861 101.36 97.5566 101.483 98.1C101.607 98.6433 101.656 99.3595 101.656 100.298V114.079C101.656 115.092 101.582 115.882 101.459 116.376C101.335 116.895 101.014 117.241 100.52 117.414C100.026 117.587 99.2606 117.685 98.1739 117.685V118.896H108.967V117.685H108.992ZM128.651 117.809C130.355 116.772 131.689 115.314 132.603 113.437C133.517 111.56 133.986 109.362 133.986 106.843C133.986 104.324 133.541 102.348 132.627 100.594C131.714 98.8409 130.405 97.4578 128.7 96.4946C126.996 95.5067 124.922 95.0374 122.526 95.0374C120.13 95.0374 118.056 95.5314 116.352 96.544C114.647 97.5319 113.314 98.9644 112.4 100.767C111.461 102.595 111.017 104.719 111.017 107.189C111.017 109.659 111.486 111.931 112.4 113.734C113.314 115.561 114.647 116.944 116.352 117.932C118.08 118.92 120.13 119.39 122.551 119.39C124.971 119.39 126.972 118.871 128.7 117.834L128.651 117.809ZM117.117 114.845C115.932 112.919 115.339 110.301 115.339 106.942C115.339 103.583 115.981 101.138 117.241 99.3348C118.5 97.5319 120.229 96.6181 122.427 96.6181C123.884 96.6181 125.144 97.0379 126.231 97.853C127.317 98.668 128.157 99.8535 128.775 101.385C129.392 102.916 129.688 104.768 129.688 106.942C129.688 110.572 129.096 113.264 127.91 115.043C126.725 116.821 124.946 117.71 122.575 117.71C120.204 117.71 118.327 116.747 117.142 114.845H117.117ZM157.819 101.409C157.819 100.323 157.893 99.4336 158.042 98.7421C158.19 98.0506 158.486 97.5319 158.955 97.1861C159.425 96.8404 160.116 96.6675 161.079 96.6675V95.4573H152.485V96.6675C153.522 96.6675 154.287 96.8404 154.757 97.1614C155.226 97.5072 155.522 98.0012 155.671 98.668C155.819 99.3349 155.893 100.199 155.893 101.261V112.548H155.72L142.729 95.4326H135.838V96.6428C136.382 96.6428 136.851 96.6922 137.221 96.8157C137.592 96.9145 137.937 97.1367 138.283 97.4331C138.629 97.7295 139.024 98.1987 139.444 98.8162L140.234 100.323H141.346L155.769 119.217H157.869V101.434L157.819 101.409ZM144.359 117.685C143.47 117.685 142.803 117.587 142.334 117.364C141.864 117.142 141.543 116.747 141.37 116.129C141.198 115.512 141.123 114.623 141.123 113.437V97.7542H139.148V112.598C139.148 113.783 139.074 114.746 138.901 115.512C138.728 116.253 138.407 116.821 137.937 117.167C137.468 117.512 136.752 117.685 135.789 117.685V118.896H144.359V117.685ZM168.637 117.685C167.797 117.685 167.204 117.611 166.809 117.463C166.439 117.315 166.241 116.969 166.241 116.45C166.241 116.129 166.291 115.808 166.389 115.487C166.488 115.166 166.587 114.87 166.686 114.598L168.266 110.819L168.563 110.029L172.589 100.002H172.687L176.54 110.029L176.787 110.819L178.17 114.079C178.393 114.598 178.541 115.067 178.664 115.463C178.763 115.858 178.837 116.179 178.837 116.45C178.837 116.846 178.714 117.142 178.467 117.315C178.22 117.488 177.899 117.611 177.528 117.661C177.158 117.71 176.812 117.735 176.466 117.735V118.945H186.642V117.735C185.728 117.735 185.036 117.488 184.542 116.994C184.048 116.5 183.53 115.66 183.011 114.499L174.787 95.3338H172.613L164.982 113.462C164.488 114.697 164.043 115.611 163.697 116.228C163.352 116.846 162.956 117.241 162.561 117.438C162.166 117.636 161.623 117.735 160.981 117.735V118.945H168.662V117.735L168.637 117.685ZM176.812 109.609H168.242L167.674 111.19H177.38L176.812 109.609ZM208.623 111.758H207.264C206.919 112.77 206.622 113.635 206.326 114.351C206.03 115.043 205.659 115.611 205.239 116.031C204.819 116.45 204.251 116.747 203.535 116.92C202.819 117.093 201.905 117.191 200.794 117.191H198.966C197.929 117.191 197.212 117.068 196.817 116.821C196.447 116.574 196.249 116.031 196.249 115.24V100.175C196.249 99.2361 196.348 98.5198 196.521 98.0259C196.694 97.5319 197.04 97.1861 197.533 96.9638C198.027 96.7663 198.768 96.6675 199.756 96.6675V95.4573H189.087V96.6675C190.05 96.6675 190.742 96.7663 191.236 96.9638C191.705 97.1614 192.026 97.5072 192.149 98.0012C192.273 98.4951 192.347 99.2114 192.347 100.15V114.401C192.347 115.339 192.273 116.031 192.125 116.5C191.976 116.969 191.68 117.29 191.211 117.463C190.742 117.636 190.025 117.71 189.062 117.71V118.92H207.635L208.672 111.783L208.623 111.758Z" fill="black"/>
<path d="M30.2055 154.93H28.1062C27.5875 156.51 27.1183 157.844 26.649 158.931C26.1798 160.017 25.6364 160.882 24.9696 161.524C24.3027 162.166 23.4383 162.635 22.3269 162.907C21.2155 163.179 19.8077 163.327 18.0789 163.327H15.2633C13.6579 163.327 12.5465 163.129 11.9538 162.759C11.361 162.364 11.0647 161.549 11.0647 160.314V137.098C11.0647 135.665 11.2128 134.579 11.4845 133.788C11.7562 133.023 12.2748 132.479 13.0652 132.158C13.8308 131.837 14.9669 131.689 16.4735 131.689V129.812H0.0493958V131.689C1.50657 131.689 2.61798 131.837 3.35891 132.134C4.09985 132.43 4.56911 132.949 4.76669 133.739C4.96427 134.505 5.06307 135.616 5.06307 137.048V159.005C5.06307 160.437 4.96427 161.524 4.74199 162.24C4.51971 162.981 4.05045 163.475 3.33421 163.722C2.61798 163.969 1.50657 164.117 0 164.117V165.994H28.6248L30.2302 154.979L30.2055 154.93ZM49.0747 164.068C47.494 164.068 46.3332 163.92 45.5923 163.648C44.8514 163.376 44.3574 162.833 44.1598 162.043C43.9622 161.252 43.8634 160.067 43.8634 158.486V137.246C43.8634 135.814 43.9375 134.677 44.1104 133.862C44.2833 133.047 44.7279 132.455 45.4935 132.134C46.2344 131.812 47.4693 131.64 49.1488 131.64V129.763H32.4777V131.64C34.2066 131.64 35.4415 131.812 36.1577 132.134C36.8986 132.455 37.3432 133.047 37.5408 133.862C37.7137 134.677 37.8125 135.814 37.8125 137.246V158.486C37.8125 160.067 37.7137 161.252 37.5161 162.043C37.3185 162.833 36.8245 163.352 36.0836 163.648C35.3427 163.92 34.1325 164.068 32.4777 164.068V165.945H49.0994V164.068H49.0747ZM81.7253 163.426C84.0963 161.746 85.2818 159.351 85.2818 156.189C85.2818 154.09 84.7878 152.41 83.8246 151.151C82.8614 149.891 81.6512 148.903 80.194 148.237C78.7369 147.57 77.2303 147.1 75.6496 146.829V146.606C77.9218 145.989 79.7989 145.051 81.2807 143.791C82.7626 142.556 83.5036 140.679 83.5036 138.234C83.5036 136.431 83.0837 134.924 82.2193 133.665C81.3548 132.43 79.9471 131.467 77.9712 130.775C76.0201 130.108 73.3774 129.763 70.0679 129.763H54.1131V131.64C55.5702 131.64 56.6816 131.738 57.4473 131.961C58.1882 132.183 58.7069 132.627 58.9539 133.344C59.2008 134.035 59.349 135.122 59.349 136.579V158.807C59.349 160.264 59.2255 161.376 58.9539 162.141C58.7069 162.882 58.1882 163.401 57.4473 163.648C56.7063 163.895 55.5949 164.043 54.1131 164.043V165.92H71.8214C76.0448 165.92 79.3296 165.08 81.7006 163.426H81.7253ZM67.2523 163.623C66.6349 163.599 66.0421 163.549 65.4 163.525V148.385H69.08C70.6607 148.385 72.1425 148.607 73.575 149.027C74.9828 149.447 76.1436 150.237 77.0327 151.373C77.9218 152.509 78.3911 154.139 78.3911 156.263C78.3911 157.992 78.1441 159.351 77.6255 160.339C77.1068 161.326 76.4153 162.067 75.5014 162.537C74.6123 163.006 73.5997 163.327 72.513 163.475C71.4016 163.623 70.2655 163.697 69.1047 163.697C68.4872 163.697 67.8698 163.697 67.2523 163.648V163.623ZM67.0054 132.232C67.524 132.232 68.018 132.208 68.4872 132.208C71.6733 132.208 73.8961 132.776 75.1557 133.936C76.3906 135.097 77.0327 136.752 77.0327 138.925C77.0327 141.395 76.4647 143.149 75.3039 144.235C74.1431 145.322 71.9943 145.866 68.833 145.866H65.4247V132.38C65.968 132.306 66.5114 132.257 67.0301 132.232H67.0054ZM104.151 164.068C102.57 164.068 101.41 163.969 100.619 163.747C99.8536 163.525 99.3349 163.031 99.0879 162.29C98.8409 161.549 98.6927 160.437 98.6927 158.955V149.546H100.125C101.113 149.546 101.829 149.644 102.299 149.842C102.768 150.039 103.262 150.558 103.805 151.423C104.349 152.262 104.892 153.077 105.411 153.868C105.929 154.658 106.522 155.547 107.164 156.56C107.831 157.572 108.621 158.832 109.56 160.339C110.498 161.845 111.684 163.722 113.116 165.945H123.292V164.068C122.032 164.068 120.995 163.895 120.131 163.574C119.266 163.253 118.426 162.463 117.562 161.252C115.537 158.387 113.931 156.115 112.721 154.411C111.511 152.707 110.523 151.423 109.782 150.533C109.041 149.644 108.35 149.027 107.707 148.656V148.434C109.239 148.064 110.696 147.52 112.079 146.804C113.462 146.088 114.598 145.1 115.487 143.84C116.376 142.581 116.846 140.926 116.846 138.851C116.846 136.505 116.228 134.677 114.969 133.368C113.709 132.059 112.005 131.146 109.856 130.578C107.683 130.034 105.262 129.763 102.595 129.763H87.6281V131.64C89.0853 131.64 90.1967 131.763 90.9129 132.035C91.6292 132.282 92.0984 132.726 92.3207 133.319C92.543 133.936 92.6418 134.752 92.6418 135.764V158.881C92.6418 160.413 92.5183 161.549 92.2466 162.29C91.9996 163.031 91.5057 163.5 90.7894 163.722C90.0732 163.944 89.0112 164.043 87.6281 164.043V165.92H104.126V164.043L104.151 164.068ZM98.6927 132.257C99.2855 132.183 99.8783 132.134 100.471 132.109C101.088 132.109 101.681 132.084 102.249 132.084C105.065 132.084 107.139 132.726 108.424 133.986C109.708 135.245 110.35 136.974 110.35 139.123C110.35 141.099 109.955 142.68 109.165 143.84C108.374 145.001 107.263 145.841 105.855 146.335C104.447 146.853 102.743 147.15 100.767 147.273L98.6681 147.224V132.257H98.6927ZM134.9 164.068C133.616 164.068 132.677 163.944 132.084 163.722C131.492 163.475 131.195 162.956 131.195 162.141C131.195 161.623 131.269 161.129 131.417 160.66C131.566 160.19 131.714 159.721 131.862 159.276L134.282 153.448L134.727 152.238L140.951 136.777H141.124L147.076 152.238L147.471 153.448L149.62 158.461C149.941 159.277 150.188 159.968 150.361 160.585C150.534 161.203 150.608 161.697 150.608 162.092C150.608 162.71 150.41 163.154 150.04 163.45C149.644 163.722 149.175 163.895 148.607 163.969C148.039 164.043 147.496 164.068 146.977 164.068V165.945H162.66V164.068C161.277 164.068 160.19 163.673 159.425 162.907C158.659 162.141 157.869 160.857 157.054 159.054L144.409 129.491H141.05L129.269 157.449C128.503 159.351 127.836 160.783 127.293 161.722C126.75 162.66 126.157 163.278 125.539 163.599C124.922 163.92 124.107 164.068 123.119 164.068V165.945H134.949V164.068H134.9ZM147.496 151.62H134.282L133.393 154.041H148.36L147.471 151.62H147.496ZM181.678 164.068C180.097 164.068 178.936 163.969 178.146 163.747C177.38 163.525 176.862 163.031 176.615 162.29C176.368 161.549 176.219 160.437 176.219 158.955V149.546H177.652C178.64 149.546 179.356 149.644 179.825 149.842C180.295 150.039 180.789 150.558 181.332 151.423C181.875 152.262 182.419 153.077 182.937 153.868C183.456 154.658 184.049 155.547 184.691 156.56C185.358 157.572 186.148 158.832 187.086 160.339C188.025 161.845 189.211 163.722 190.643 165.945H200.818V164.068C199.559 164.068 198.522 163.895 197.657 163.574C196.793 163.253 195.953 162.463 195.089 161.252C193.063 158.387 191.458 156.115 190.248 154.411C189.038 152.707 188.05 151.423 187.309 150.533C186.568 149.644 185.876 149.027 185.234 148.656V148.434C186.765 148.064 188.223 147.52 189.606 146.804C190.989 146.088 192.125 145.1 193.014 143.84C193.903 142.581 194.372 140.926 194.372 138.851C194.372 136.505 193.755 134.677 192.495 133.368C191.236 132.059 189.532 131.146 187.383 130.578C185.209 130.034 182.789 129.763 180.122 129.763H165.155V131.64C166.612 131.64 167.723 131.763 168.44 132.035C169.156 132.282 169.625 132.726 169.847 133.319C170.07 133.936 170.168 134.752 170.168 135.764V158.881C170.168 160.413 170.045 161.549 169.773 162.29C169.526 163.031 169.032 163.5 168.316 163.722C167.6 163.944 166.538 164.043 165.155 164.043V165.92H181.653V164.043L181.678 164.068ZM176.219 132.257C176.812 132.183 177.405 132.134 177.998 132.109C178.615 132.109 179.208 132.084 179.776 132.084C182.591 132.084 184.666 132.726 185.95 133.986C187.235 135.245 187.877 136.974 187.877 139.123C187.877 141.099 187.482 142.68 186.691 143.84C185.901 145.001 184.79 145.841 183.382 146.335C181.974 146.853 180.27 147.15 178.294 147.273L176.195 147.224V132.257H176.219ZM223.491 164.068C221.96 164.068 220.774 163.944 219.959 163.722C219.144 163.475 218.601 162.981 218.28 162.216C217.959 161.45 217.811 160.264 217.811 158.634V151.052L225.961 136.9C226.85 135.443 227.616 134.356 228.283 133.665C228.949 132.973 229.641 132.479 230.382 132.208C231.123 131.936 232.012 131.763 233.074 131.689V129.812H220.923V131.689C222.306 131.689 223.244 131.812 223.664 132.035C224.109 132.282 224.331 132.627 224.331 133.097C224.331 133.467 224.257 133.838 224.133 134.208C224.01 134.579 223.837 134.9 223.664 135.147L216.576 147.866H216.255L213.933 143.519L209.092 135.418C208.475 134.455 208.154 133.64 208.154 132.949C208.154 132.553 208.376 132.232 208.821 132.01C209.265 131.788 210.253 131.689 211.784 131.689V129.812H196.2V131.689C196.867 131.689 197.46 131.763 197.978 131.911C198.522 132.059 199.09 132.38 199.707 132.899C200.325 133.418 201.016 134.183 201.806 135.245C202.572 136.283 203.511 137.74 204.622 139.568L211.784 151.225V158.659C211.784 160.264 211.661 161.475 211.439 162.265C211.192 163.055 210.698 163.549 209.907 163.772C209.117 163.994 207.907 164.093 206.301 164.093V165.97H223.516V164.093L223.491 164.068Z" fill="black"/>
</svg>
