<svg width="294" height="73" viewBox="0 0 294 73" fill="none" xmlns="http://www.w3.org/2000/svg">
<path fill-rule="evenodd" clip-rule="evenodd" d="M115.898 0.730469V2.08999H62.7339C11.369 2.08999 9.56958 2.06279 9.51505 1.60056C9.48778 1.32866 9.56957 1.00237 9.70589 0.920801C9.84221 0.81204 33.7798 0.730469 115.898 0.730469ZM124.35 5.08092L123.859 5.84225C123.614 6.25011 122.251 8.26219 118.352 14.0537H115.898V40.1564H114.535V18.1323H108.81V40.1564H103.629V14.0537H100.358L100.222 40.0205L98.9947 40.1564V18.1323H93.2693V40.1564H88.0892V14.0537H84.5449V40.1564H83.1817V18.1323H77.7289L77.5926 40.0205H72.4125L72.2762 14.0537H69.0045V40.1564H67.6413V18.1323H61.916V40.1564H56.7359V14.0537H53.4642L53.3279 40.0205H51.9647L51.8284 18.1323H46.3756V40.1564H41.1955V14.0537H37.6512V40.1564H36.288V18.1323H30.5627V40.1564H25.3825V14.0537H22.1109L21.9746 40.0205L20.7477 40.1564V18.1323H15.0223V40.1564H9.84221V14.0537H7.38847L4.58031 9.89361C3.02628 7.63681 1.66309 5.59754 1.55403 5.4344C1.39045 5.16249 13.7137 5.08092 124.35 5.08092ZM206.005 5.18968C207.259 5.29844 208.35 5.57035 209.14 5.9782C209.822 6.33168 210.776 7.1202 211.24 7.74557C211.73 8.37095 212.276 9.40418 212.439 10.0568C212.603 10.6821 212.684 12.232 212.63 13.5099C212.548 15.4404 212.385 16.0658 211.73 17.2622C211.267 18.0779 210.476 19.0568 209.958 19.4374C209.44 19.8181 208.459 20.3075 207.777 20.4978C207.095 20.6882 206.005 20.8513 205.323 20.8513C204.642 20.8513 203.469 20.661 202.733 20.4435C201.97 20.2259 200.988 19.7365 200.552 19.383C200.116 19.0296 199.38 18.1051 198.916 17.2894C198.262 16.0658 198.098 15.4404 198.017 13.5099C197.935 11.661 198.017 10.8997 198.48 9.70328C198.78 8.86038 199.489 7.74557 200.061 7.17458C200.661 6.60358 201.724 5.92382 202.597 5.59754C203.769 5.18968 204.505 5.08092 206.005 5.18968ZM202.27 7.664C201.861 8.18062 201.37 9.13228 201.206 9.78485C201.043 10.4102 200.961 12.1504 201.016 13.6459C201.097 15.9299 201.234 16.5552 201.779 17.5341C202.27 18.3498 202.815 18.8664 203.687 19.2743C204.614 19.7093 205.187 19.7909 206.059 19.6549C206.714 19.5734 207.559 19.1927 207.968 18.8664C208.404 18.5129 208.949 17.7244 209.195 17.099C209.467 16.4737 209.767 15.1413 209.849 14.1353C209.958 13.1021 209.876 11.6066 209.713 10.7909C209.549 9.97518 209.14 8.88757 208.813 8.37095C208.459 7.85433 207.886 7.22896 207.504 6.95705C207.123 6.68515 206.387 6.41325 205.869 6.33168C205.351 6.25011 204.505 6.30449 203.987 6.46763C203.469 6.60358 202.706 7.1202 202.27 7.664ZM146.543 5.48878L154.749 16.229L154.804 11.9601C154.858 8.5069 154.804 7.55524 154.476 7.06582C154.258 6.71234 153.795 6.41325 153.468 6.38606C153.113 6.33168 152.813 6.08696 152.786 5.84225C152.704 5.40721 152.977 5.35282 155.485 5.4344C157.775 5.48878 158.293 5.57035 158.293 5.89663C158.293 6.11415 158.021 6.33168 157.666 6.38606C157.339 6.41325 156.876 6.71234 156.657 7.06582C156.33 7.55524 156.249 8.83319 156.249 20.8513H155.567C154.994 20.8513 154.149 19.8725 150.496 15.0598C148.069 11.9057 145.97 9.15947 145.834 9.02352C145.697 8.86038 145.643 10.9268 145.752 19.0839L146.652 19.4918C147.142 19.7093 147.524 20.0628 147.524 20.2259C147.524 20.4978 146.788 20.5794 144.798 20.5794C142.562 20.5794 142.071 20.4978 142.071 20.1716C142.071 19.954 142.453 19.6549 142.889 19.4918C143.435 19.3105 143.771 18.9661 143.898 18.4586C144.034 18.0507 144.116 15.3317 144.116 7.1202L143.08 6.65796C142.535 6.38606 142.071 5.9782 142.071 5.76068C142.099 5.40721 142.453 5.35282 146.543 5.48878ZM166.745 5.35282C167.563 5.35282 167.59 5.4344 170.426 12.096C172.907 17.8876 173.425 18.8936 174.161 19.3558C174.652 19.6549 175.033 20.0628 175.061 20.2531C175.061 20.4978 174.243 20.5794 171.789 20.5794C169.062 20.5794 168.517 20.525 168.517 20.1716C168.517 19.954 168.817 19.7093 169.199 19.6277C169.717 19.519 169.88 19.3287 169.88 18.7577C169.88 18.3226 169.635 17.4797 168.79 15.6852H163.064L162.519 17.2622C162.192 18.1051 162.028 18.9752 162.11 19.1655C162.192 19.3287 162.546 19.5462 162.928 19.6277C163.31 19.7093 163.61 19.954 163.61 20.1716C163.61 20.4978 163.146 20.5794 161.02 20.5794C158.893 20.5794 158.43 20.4978 158.43 20.1716C158.43 19.954 158.757 19.6821 159.138 19.5734C159.52 19.4374 160.065 19.0024 160.311 18.5401C160.583 18.0779 161.947 14.951 163.364 11.5522C165.9 5.4344 165.927 5.38002 166.745 5.35282ZM163.719 14.2713C163.637 14.516 164.21 14.5975 165.927 14.5975C167.209 14.5975 168.245 14.516 168.245 14.4072C168.245 14.2713 167.781 12.9933 167.236 11.525C166.663 10.0568 166.118 8.86038 166.009 8.88757C165.927 8.88757 165.382 10.0296 164.837 11.4163C164.264 12.7758 163.773 14.0809 163.719 14.2713ZM188.147 5.35282L188.229 7.52805C188.283 9.45856 188.229 9.70328 187.82 9.70328C187.493 9.70328 187.238 9.36793 187.057 8.69724C186.893 8.12624 186.566 7.44648 186.293 7.17458C185.966 6.8211 185.421 6.68515 182.694 6.71234L182.722 12.3679C182.749 15.4676 182.831 18.2954 182.94 18.6761C183.076 19.1655 183.403 19.4374 184.139 19.6277C184.712 19.7909 185.121 20.0084 185.066 20.1716C185.012 20.3347 183.567 20.4435 181.467 20.4435C179.368 20.4435 177.923 20.3347 177.869 20.1716C177.814 20.0084 178.223 19.7909 178.796 19.6277C179.532 19.4374 179.859 19.1655 179.995 18.6761C180.104 18.2954 180.186 15.4676 180.241 6.71234H178.605C177.133 6.71234 176.914 6.79391 176.424 7.47367C176.124 7.88153 175.797 8.53409 175.742 8.96914C175.66 9.43137 175.442 9.70328 175.115 9.70328C174.706 9.70328 174.652 9.45856 174.733 7.85433C174.788 6.84829 174.87 5.86944 174.924 5.7063C175.033 5.4344 176.587 5.35282 188.147 5.35282ZM193.218 5.40721C195.726 5.46159 196.708 5.59754 196.79 5.84225C196.844 6.00539 196.544 6.25011 196.108 6.33168C195.699 6.41325 195.208 6.5492 195.018 6.60358C194.772 6.68515 194.718 8.18062 194.827 19.3558L195.863 19.6277C196.408 19.7909 196.844 20.0084 196.79 20.1716C196.735 20.3347 195.236 20.4706 193.245 20.525C190.328 20.5794 189.783 20.525 189.783 20.1716C189.783 19.9268 190.11 19.7093 190.601 19.6277C191.037 19.5462 191.555 19.2471 191.691 18.948C191.855 18.6489 191.964 16.0114 191.964 12.9117C191.964 8.86038 191.882 7.25615 191.637 6.92986C191.446 6.68515 190.983 6.44044 190.601 6.38606C190.219 6.33168 189.892 6.08696 189.837 5.81506C189.756 5.38002 190.028 5.35282 193.218 5.40721ZM218.41 5.35282L222.418 10.6549C224.653 13.5643 226.562 15.8755 226.671 15.7667C226.78 15.6308 226.862 13.7003 226.807 11.4435C226.753 8.26219 226.643 7.22896 226.316 6.87548C226.098 6.63077 225.662 6.41325 225.362 6.35887C225.062 6.33168 224.79 6.08696 224.762 5.84225C224.681 5.40721 224.953 5.35282 227.407 5.35282C229.833 5.35282 230.133 5.40721 230.051 5.81506C230.024 6.08696 229.752 6.33168 229.452 6.38606C229.152 6.44044 228.77 6.60358 228.634 6.73953C228.47 6.90267 228.307 9.83923 228.088 20.7154H227.407C226.834 20.7154 225.962 19.7365 222.336 15.0054C219.909 11.8513 217.783 9.26823 217.619 9.24104C217.401 9.18666 217.319 10.4918 217.347 13.5915C217.374 16.0114 217.456 18.2954 217.565 18.6761C217.701 19.1383 218.055 19.4374 218.628 19.6277C219.119 19.7909 219.5 20.0628 219.5 20.2531C219.5 20.4978 218.792 20.5522 216.72 20.525C214.784 20.4706 213.939 20.3347 213.857 20.1172C213.802 19.9268 213.966 19.7637 214.184 19.7637C214.429 19.7637 214.92 19.4646 215.956 18.4042L215.929 12.8574C215.874 8.61566 215.793 7.20177 215.52 6.87548C215.302 6.63077 214.893 6.44044 214.593 6.44044C214.293 6.44044 213.993 6.30449 213.911 6.16853C213.83 6.03258 213.83 5.76068 213.911 5.62473C214.02 5.48878 215.056 5.35282 218.41 5.35282ZM238.694 5.40721C239.43 5.48878 239.594 5.76068 242.32 12.0145C243.874 15.6036 245.21 18.6489 245.265 18.812C245.319 18.9752 245.755 19.2743 246.219 19.4918C246.682 19.7093 247.064 20.0628 247.037 20.2531C247.037 20.4978 246.219 20.5522 243.711 20.525C241.802 20.4706 240.357 20.3347 240.303 20.1716C240.248 20.0084 240.603 19.7365 241.093 19.5734C241.884 19.2743 241.966 19.1383 241.802 18.4858C241.693 18.0507 241.42 17.2622 240.766 15.6852H235.041L234.605 16.7184C234.386 17.2622 234.087 18.1051 234.005 18.5673C233.814 19.383 233.868 19.4374 234.686 19.6006C235.232 19.6821 235.559 19.8997 235.504 20.1172C235.422 20.3347 234.632 20.4706 232.914 20.525C230.842 20.5794 230.406 20.4978 230.406 20.1716C230.406 19.954 230.706 19.7093 231.087 19.6277C231.578 19.519 231.96 19.1111 232.396 18.2139C232.751 17.4797 234.114 14.2984 235.45 11.1172C237.876 5.35282 237.903 5.32563 238.694 5.40721ZM236.458 12.232C235.995 13.4012 235.613 14.4072 235.613 14.4616C235.586 14.5432 236.622 14.5975 237.903 14.5975C239.621 14.5975 240.194 14.516 240.139 14.2713C240.085 14.0809 239.648 12.7758 239.185 11.4163C238.721 10.0296 238.203 8.88757 238.04 8.88757C237.876 8.88757 237.658 9.15947 237.522 9.51295C237.385 9.83923 236.895 11.0628 236.458 12.232ZM251.944 5.35282C255.161 5.35282 255.489 5.40721 255.407 5.84225C255.379 6.14134 255.052 6.33168 254.562 6.38606C254.125 6.44044 253.662 6.63077 253.526 6.79391C253.417 6.98424 253.335 9.81204 253.444 19.0839L255.761 19.1655C257.479 19.1927 258.242 19.1111 258.678 18.812C259.033 18.5945 259.524 17.8604 259.769 17.1806C260.096 16.3468 260.414 15.9389 260.723 15.9571C261.105 15.9571 261.187 16.1202 261.078 16.7184C260.996 17.1262 260.832 18.1323 260.532 20.4435L254.453 20.525C249.218 20.5794 248.4 20.525 248.4 20.1716C248.4 19.954 248.727 19.6821 249.136 19.6006C249.572 19.519 250.063 19.3015 250.254 19.1383C250.527 18.8936 250.608 17.3981 250.608 12.9661C250.608 8.5069 250.527 7.03862 250.254 6.8211C250.063 6.65796 249.572 6.44044 249.136 6.33168C248.727 6.25011 248.4 5.9782 248.4 5.76068C248.4 5.40721 248.973 5.35282 251.944 5.35282ZM235.041 27.1051L238.885 36.1595C241.012 41.1081 243.084 45.8664 243.492 46.6821C243.901 47.4978 244.583 48.4495 245.019 48.803C245.456 49.1293 246.028 49.4283 246.273 49.4012C246.628 49.4012 246.764 49.6187 246.764 50.7607H236.677V50.0809C236.677 49.5915 236.813 49.4012 237.222 49.4012C237.522 49.4012 238.012 49.2924 238.312 49.1293C238.676 48.948 238.858 48.5854 238.858 48.0416C238.858 47.5794 238.476 46.3015 237.222 43.1474H228.361L227.625 44.9963C227.216 46.0024 226.807 47.2531 226.698 47.7697C226.562 48.5311 226.616 48.803 227.025 49.0749C227.325 49.2652 227.87 49.4012 228.279 49.4012C228.906 49.4012 229.043 49.5099 229.043 50.7607L215.002 50.7879L211.73 45.7033C209.931 42.9027 208.24 40.5099 207.968 40.4012C207.722 40.2652 207.123 40.1564 205.869 40.1564V44.1806C205.869 46.9812 205.95 48.3407 206.196 48.667C206.414 48.9661 207.068 49.238 207.859 49.3468C208.949 49.5099 209.14 49.6187 209.14 50.7607H198.507V50.0809C198.507 49.4827 198.616 49.4012 199.38 49.4012C199.871 49.4283 200.579 49.1836 201.643 48.3679L201.779 30.096L201.097 29.4163C200.634 28.954 200.116 28.7365 199.462 28.7365C198.616 28.7365 198.507 28.6549 198.507 27.377H204.015C207.068 27.377 210.34 27.5129 211.321 27.6489C212.303 27.812 213.748 28.2471 214.511 28.6006C215.356 29.0084 216.201 29.661 216.556 30.1776C216.938 30.7214 217.21 31.5915 217.292 32.5432C217.347 33.3589 217.319 34.5009 217.21 35.0719C217.101 35.7516 216.665 36.4586 215.874 37.2471C215.111 38.0265 214.248 38.5703 213.284 38.8785C212.521 39.1232 211.867 39.4223 211.867 39.5583C211.839 39.667 212.112 39.9933 212.439 40.2924C212.766 40.5915 214.157 42.4404 215.547 44.3709C216.965 46.3287 218.41 48.2048 218.819 48.5854C219.364 49.0749 219.909 49.2924 220.945 49.3468C222.036 49.4283 222.527 49.3196 223.045 48.9389C223.426 48.6398 224.026 47.7969 224.381 47.0628C224.735 46.3286 226.671 41.8151 228.688 37.0296C230.733 32.2441 232.478 28.0568 232.614 27.7305C232.805 27.2139 233.05 27.1051 235.041 27.1051ZM205.869 38.525C208.077 38.525 209.195 38.3891 209.74 38.2531C210.313 38.09 211.212 37.5734 211.73 37.1111C212.385 36.5129 212.794 35.806 212.984 34.9903C213.148 34.2833 213.175 33.2501 213.066 32.5432C212.93 31.7546 212.575 30.9933 212.03 30.4223C211.567 29.9329 210.749 29.3891 210.231 29.2531C209.713 29.1172 208.513 29.0084 207.559 29.0084H205.869V38.525ZM229.097 41.38C234.659 41.4888 236.295 41.4616 236.322 41.38C236.377 41.2984 235.695 39.232 234.795 36.7577C233.923 34.2833 233.078 32.2712 232.941 32.2712C232.805 32.2712 231.905 34.3105 230.897 36.8392L229.097 41.38ZM142.071 27.377H152.704V27.9752C152.704 28.4918 152.513 28.6277 151.559 28.7909C150.905 28.8996 150.141 29.2259 149.842 29.525C149.324 30.0688 149.296 30.5039 149.214 38.8513C149.16 46.3015 149.214 47.7154 149.569 48.232C149.951 48.803 150.169 48.8574 152.977 48.8574C154.831 48.8574 156.303 48.6942 156.876 48.4767C157.339 48.2864 158.021 47.7697 158.375 47.3347C158.73 46.8996 159.275 45.812 159.602 44.9691C160.093 43.6912 160.311 43.3921 160.829 43.3921C161.265 43.3921 161.429 43.5552 161.401 44.0175C161.401 44.3438 161.183 45.9752 160.474 50.6247L142.071 50.7607V50.0809C142.071 49.4827 142.18 49.4012 142.971 49.4012C143.435 49.4012 144.143 49.1836 145.207 48.3407L145.316 40.7818C145.343 36.6217 145.316 32.4888 145.234 31.5915C145.152 30.667 144.907 29.7154 144.716 29.4435C144.552 29.1987 143.871 28.8725 143.216 28.7637C142.262 28.6277 142.071 28.4918 142.071 27.9752V27.377ZM163.337 27.377H174.243V28.0024C174.243 28.519 174.052 28.6277 172.961 28.7909C172.225 28.8996 171.462 29.1716 171.244 29.4163C170.889 29.7697 170.835 31.238 170.835 39.0688C170.835 46.8996 170.889 48.3679 171.244 48.7214C171.462 48.9389 172.198 49.2108 172.879 49.3468C173.834 49.5099 174.106 49.6731 174.106 50.0809C174.106 50.5975 173.861 50.6247 163.337 50.7607V50.1625C163.337 49.6187 163.528 49.5099 164.618 49.3468C165.327 49.238 166.118 48.9661 166.336 48.7214C166.663 48.3679 166.745 46.954 166.827 40.4827C166.881 36.1867 166.854 32.0809 166.772 31.3196C166.663 30.5855 166.445 29.7425 166.254 29.4706C166.063 29.1716 165.409 28.8996 164.618 28.7909C163.528 28.6277 163.337 28.519 163.337 28.0024V27.377ZM176.751 27.3226L183.73 27.4314C190.083 27.5129 190.873 27.5945 192.237 28.1111C193.055 28.4374 194.009 28.9812 194.336 29.3347C194.663 29.661 195.127 30.3951 195.345 30.9661C195.59 31.5371 195.781 32.4072 195.781 32.951C195.781 33.4676 195.59 34.3377 195.372 34.9087C195.154 35.4797 194.581 36.241 194.091 36.6489C193.6 37.0296 192.7 37.5734 191.01 38.2803L192.509 38.8785C193.327 39.2048 194.363 39.7214 194.827 40.0477C195.263 40.3468 195.917 41.1353 196.244 41.7879C196.599 42.4948 196.871 43.5009 196.871 44.235C196.871 44.8876 196.735 45.8664 196.572 46.4102C196.381 46.9268 195.808 47.8241 195.263 48.3679C194.718 48.9389 193.6 49.6731 192.782 49.9993C191.391 50.5431 190.737 50.5975 176.696 50.7607V50.1353C176.696 49.6187 176.86 49.5099 177.978 49.3468C178.768 49.238 179.423 48.9661 179.614 48.667C179.886 48.2864 179.968 45.9752 179.968 39.0688C179.968 32.1353 179.886 29.8241 179.614 29.4435C179.423 29.1444 178.768 28.8725 177.978 28.7637C176.833 28.6006 176.696 28.519 176.724 27.948L176.751 27.3226ZM184.003 33.522L184.058 37.7093C187.329 37.6821 188.692 37.519 189.238 37.3287C189.756 37.1383 190.437 36.6489 190.737 36.241C191.119 35.6972 191.31 34.9631 191.364 33.6851C191.419 32.2169 191.337 31.7003 190.873 30.9661C190.574 30.5039 189.947 29.9057 189.51 29.6882C189.047 29.4706 187.793 29.2259 186.702 29.1444C185.612 29.0628 184.548 29.09 184.33 29.1716C184.003 29.3075 183.948 30.0688 184.003 33.522ZM184.058 49.1293C187.547 49.1293 189.02 48.9661 189.592 48.7758C190.165 48.6126 190.955 48.096 191.364 47.6882C191.991 47.0084 192.1 46.6549 192.182 44.8332C192.237 43.1746 192.155 42.5492 191.719 41.7879C191.419 41.2169 190.71 40.5915 190.001 40.2108C189.047 39.7214 188.392 39.6126 186.429 39.6126H184.058V49.1293ZM249 27.3226L255.57 27.4314C260.723 27.5401 262.468 27.6761 263.531 28.0024C264.267 28.2743 265.303 28.7365 265.849 29.09C266.367 29.4435 267.021 30.2048 267.294 30.803C267.648 31.4827 267.812 32.4072 267.784 33.4132C267.757 34.2833 267.539 35.4253 267.266 35.9963C267.021 36.5401 266.367 37.3287 265.849 37.7637C265.303 38.1716 264.295 38.7154 263.586 38.9329C262.877 39.1504 262.305 39.4223 262.277 39.5311C262.277 39.667 262.55 39.9933 262.877 40.2924C263.177 40.5915 264.595 42.4132 265.985 44.3709C267.376 46.3015 268.821 48.1776 269.148 48.5039C269.502 48.8302 270.293 49.2108 270.893 49.3196C271.71 49.5099 271.983 49.7003 271.983 50.0809C271.983 50.5975 271.738 50.6247 265.44 50.7879L262.223 45.7305C260.478 42.9571 258.787 40.5643 258.488 40.4283C258.188 40.2652 257.561 40.1564 256.306 40.1564L256.279 44.1534C256.279 46.9812 256.388 48.3135 256.634 48.667C256.852 48.9661 257.506 49.238 258.351 49.3468C259.442 49.5099 259.714 49.6459 259.714 50.0809C259.714 50.5975 259.496 50.6247 248.945 50.7607V50.0809C248.945 49.4827 249.054 49.4012 249.818 49.4012C250.308 49.4283 251.017 49.1836 252.081 48.3679L252.217 30.096L251.535 29.4163C251.072 28.954 250.554 28.7365 249.899 28.7365C249.027 28.7365 248.945 28.6549 248.973 28.0296L249 27.3226ZM256.306 38.525C258.515 38.525 259.66 38.3891 260.26 38.2259C260.859 38.0628 261.786 37.4646 262.332 36.9208C263.095 36.1595 263.368 35.6429 263.504 34.5824C263.613 33.8211 263.586 32.7335 263.422 32.1353C263.259 31.5371 262.795 30.7214 262.386 30.3135C261.95 29.9057 261.187 29.4435 260.669 29.2803C260.123 29.1444 258.924 29.0084 257.997 29.0084H256.306V38.525ZM275.228 27.4314C280.108 27.5129 280.162 27.5129 280.189 28.1383C280.217 28.6277 280.108 28.7365 279.372 28.7365C278.881 28.7365 278.336 28.8997 278.145 29.09C277.981 29.2531 277.818 29.5522 277.818 29.6882C277.818 29.8513 278.69 31.4284 279.753 33.2229C280.844 35.0175 282.016 37.1111 283.052 39.2048L283.543 38.3891C283.788 37.954 284.988 35.806 286.16 33.658C287.905 30.5311 288.26 29.6882 288.041 29.3075C287.878 29.0628 287.333 28.8453 286.869 28.8181C286.16 28.7365 286.024 28.6277 286.024 27.377H293.93V28.0567C293.93 28.6277 293.767 28.7637 292.894 28.8996C292.158 29.0084 291.559 29.3891 290.795 30.2048C290.195 30.8302 288.423 33.5492 284.088 41.1081L284.17 44.6972C284.225 47.4435 284.334 48.3951 284.661 48.7214C284.879 48.9661 285.642 49.238 286.351 49.3468C287.469 49.5099 287.66 49.6187 287.66 50.7607H276.482V50.1625C276.454 49.6187 276.645 49.5099 277.899 49.3468C278.854 49.238 279.453 49.0205 279.672 48.667C279.917 48.3407 280.026 47.0628 280.026 41.1081L277.081 36.3498C275.473 33.7395 273.783 31.1293 273.319 30.5311C272.883 29.9601 272.174 29.3075 271.765 29.1172C271.356 28.8997 270.784 28.7365 270.484 28.7365C270.129 28.7365 269.911 28.5462 269.884 28.2471C269.857 27.9752 269.938 27.6489 270.075 27.5401C270.211 27.4586 272.528 27.4042 275.228 27.4314ZM9.84221 43.4193L21.9746 43.5552V54.4314L21.3475 54.5129C20.7477 54.5673 20.7477 54.5129 20.7477 48.5854H15.0223V54.5673H9.84221V43.4193ZM37.624 43.4193V54.5673H36.2608V48.5854H30.5354V54.5673L25.4916 54.4314L25.4643 49.2924C25.4371 46.4374 25.4643 43.9631 25.5189 43.7728C25.6007 43.5009 26.9911 43.4193 37.624 43.4193ZM41.1955 43.4193L53.3006 43.5552V54.4314L41.1683 54.5673L41.1955 43.4193ZM68.8682 43.5824L69.0045 54.5945H56.7359L56.6813 49.1836C56.6541 46.2199 56.7359 43.7184 56.8722 43.6096C57.0085 43.5009 59.7621 43.4737 68.8682 43.5824ZM84.5449 43.4465V54.5945L72.4125 54.4586L72.358 49.2924C72.3307 46.4646 72.358 43.9903 72.4125 43.7999C72.4943 43.528 73.8848 43.4465 84.5449 43.4465ZM88.0892 43.4193L100.222 43.5824V54.4586H99.5399C98.8583 54.4586 98.8583 54.4586 98.722 48.6126H93.2693V54.5945H88.0892V43.4193ZM115.735 43.5552L115.871 54.5673H114.508V48.5854H108.782V54.5673H103.602L103.575 49.1836C103.548 46.2199 103.629 43.6912 103.766 43.6096C103.875 43.5009 106.629 43.4465 115.735 43.5552ZM147.224 56.7697C147.906 56.7697 148.942 56.9873 149.542 57.2592C150.141 57.5039 150.932 58.1021 151.259 58.5371C151.614 58.9722 152.023 59.7607 152.186 60.2773C152.35 60.7939 152.432 61.9631 152.377 62.8876C152.295 64.1111 152.077 64.8181 151.532 65.661C151.068 66.3679 150.332 67.0205 149.623 67.3468C148.996 67.6459 147.933 67.8906 147.306 67.8906C146.679 67.8906 145.697 67.7002 145.125 67.4827C144.552 67.238 143.816 66.7758 143.462 66.4495C143.107 66.1232 142.644 65.4163 142.426 64.8996C142.208 64.383 142.044 63.241 142.044 62.3981C142.044 61.528 142.235 60.3589 142.48 59.8151C142.726 59.2441 143.107 58.5643 143.38 58.2652C143.625 57.9933 144.307 57.5311 144.907 57.2592C145.507 56.9873 146.57 56.7697 147.224 56.7697ZM144.58 59.2713C144.28 59.8694 144.143 60.7939 144.143 62.1806C144.143 63.5129 144.307 64.5734 144.607 65.2531C144.88 65.9057 145.398 66.4223 146.025 66.7486C146.788 67.1292 147.17 67.1564 147.988 66.9389C148.587 66.7758 149.214 66.3407 149.569 65.8513C149.869 65.4163 150.223 64.3558 150.332 63.5401C150.441 62.67 150.414 61.5009 150.223 60.6851C150.06 59.951 149.787 59.1353 149.596 58.9178C149.433 58.6731 148.969 58.2924 148.587 58.0205C148.233 57.7758 147.606 57.5583 147.224 57.5583C146.87 57.5854 146.215 57.7758 145.807 57.9933C145.398 58.2108 144.852 58.7818 144.58 59.2713ZM172.007 56.7969C172.307 56.8513 173.152 58.4827 174.488 61.6096C175.633 64.1927 176.833 66.5583 177.16 66.8302C177.487 67.1293 177.76 67.4012 177.76 67.4827C177.76 67.5643 176.724 67.6187 175.442 67.6187C174.079 67.6187 173.125 67.5099 173.125 67.3468C173.125 67.2108 173.37 67.0205 173.67 66.9389C173.97 66.8573 174.215 66.6942 174.215 66.5311C174.215 66.3951 174.052 65.7697 173.397 64.0839H169.444L169.117 64.9812C168.926 65.4435 168.79 66.0688 168.79 66.3407C168.79 66.5854 168.953 66.8573 169.172 66.9389C169.417 67.0205 169.58 67.2108 169.58 67.3468C169.58 67.5099 168.817 67.6187 167.808 67.6187C166.854 67.6187 166.036 67.5371 166.036 67.4283C166.036 67.3196 166.309 67.0749 166.663 66.9117C167.099 66.6942 167.727 65.5794 168.872 62.8332C169.771 60.7667 170.726 58.5371 171.025 57.8845C171.38 57.0688 171.68 56.7425 172.007 56.7969ZM170.017 62.806C169.88 63.2138 170.044 63.2682 171.353 63.2682C172.198 63.2682 172.852 63.1595 172.852 62.9963C172.852 62.8604 172.607 62.099 172.307 61.3105C171.98 60.522 171.653 59.7879 171.543 59.6519C171.462 59.5432 171.107 60.087 170.78 60.8755C170.453 61.664 170.126 62.5341 170.017 62.806ZM193.573 56.7697C194.118 56.7697 194.772 56.8785 195.072 57.0145C195.399 57.1232 195.754 57.096 195.917 56.9601C196.081 56.8241 196.354 56.7697 196.544 56.8513C196.735 56.9601 196.844 57.6398 196.844 58.5099C196.844 59.3256 196.735 60.0598 196.572 60.1413C196.435 60.2229 196.163 59.8966 195.945 59.4072C195.754 58.9178 195.29 58.2924 194.936 58.0477C194.554 57.7758 193.954 57.5583 193.573 57.5583C193.218 57.5583 192.673 57.7214 192.4 57.8845C192.073 58.1293 191.937 58.5099 191.991 59.0537C192.073 59.7063 192.373 60.0598 193.436 60.7395C194.2 61.229 195.29 61.9631 195.89 62.3709C196.653 62.9147 197.09 63.4586 197.253 64.1655C197.471 64.954 197.444 65.3619 197.062 66.1232C196.762 66.7214 196.244 67.238 195.617 67.4827C195.099 67.7002 194.254 67.8906 193.709 67.8906C193.191 67.8906 192.428 67.7818 192.019 67.6187C191.501 67.4283 191.173 67.4283 191.01 67.6187C190.873 67.7818 190.601 67.8906 190.383 67.8906C190.137 67.8906 190.028 67.4012 190.028 66.1232C190.028 64.8996 190.137 64.3558 190.383 64.383C190.574 64.383 190.955 64.8997 191.255 65.525C191.691 66.4223 192.019 66.7214 192.755 66.8845C193.354 67.0205 194.009 66.9933 194.472 66.8302C194.963 66.6398 195.29 66.2592 195.399 65.7969C195.481 65.3891 195.454 64.8453 195.317 64.6277C195.154 64.4102 194.445 63.8392 193.709 63.3498C192.973 62.8876 191.882 62.099 191.337 61.5824C190.465 60.8483 190.301 60.522 190.301 59.6791C190.301 59.1081 190.437 58.4012 190.574 58.1021C190.737 57.803 191.255 57.3951 191.746 57.1776C192.237 56.9601 193.055 56.7697 193.573 56.7697ZM225.962 56.7969C226.262 56.8513 227.107 58.5099 228.388 61.5009C229.588 64.2471 230.679 66.3679 231.06 66.7486C231.442 67.0749 231.742 67.4012 231.742 67.4827C231.742 67.5643 230.706 67.6187 229.424 67.6187C228.17 67.6187 227.107 67.5643 227.107 67.4827C227.107 67.4012 227.38 67.1293 227.68 66.8845C228.225 66.4223 228.225 66.3679 227.243 64.0839H223.426L222.963 65.1715C222.69 65.7697 222.554 66.4495 222.608 66.667C222.69 66.8845 222.936 67.0749 223.154 67.0749C223.399 67.0749 223.563 67.2108 223.563 67.3468C223.563 67.5099 222.799 67.6187 221.791 67.6187C220.836 67.6187 220.018 67.5371 220.018 67.4283C220.018 67.3196 220.291 67.0749 220.645 66.9117C221.082 66.6942 221.654 65.661 222.608 63.377C223.345 61.6096 224.299 59.38 224.735 58.4283C225.28 57.2048 225.635 56.7425 225.962 56.7969ZM223.835 63.1323C223.835 63.2138 224.517 63.2682 225.335 63.2682C226.18 63.2682 226.862 63.1867 226.862 63.0779C226.862 62.9691 226.589 62.1806 226.262 61.3649C225.935 60.5492 225.58 59.7607 225.498 59.6519C225.417 59.516 225.008 60.2229 224.599 61.2018C224.19 62.2078 223.835 63.0507 223.835 63.1323ZM254.589 56.7969C254.834 56.8513 255.816 58.7818 257.015 61.5009C258.133 64.0567 259.115 66.2864 259.169 66.4767C259.224 66.667 259.524 66.8573 259.823 66.9389C260.123 67.0205 260.369 67.2108 260.369 67.3468C260.369 67.5099 259.415 67.6187 258.051 67.6187C256.797 67.6187 255.734 67.5643 255.734 67.4827C255.734 67.4012 256.007 67.1293 256.306 66.8845C256.852 66.4223 256.852 66.3679 255.87 64.0839H252.053L251.59 65.1715C251.317 65.7697 251.181 66.4495 251.235 66.667C251.317 66.8845 251.563 67.0749 251.781 67.0749C252.026 67.0749 252.19 67.2108 252.19 67.3468C252.19 67.5099 251.426 67.6187 250.417 67.6187C249.436 67.6187 248.645 67.5099 248.645 67.3468C248.645 67.2108 248.863 67.0205 249.136 66.9661C249.409 66.8845 249.818 66.4223 250.063 65.9329C250.308 65.4435 251.235 63.377 252.081 61.3649C252.926 59.3528 253.744 57.4767 253.907 57.2048C254.044 56.9329 254.343 56.7425 254.589 56.7969ZM252.462 63.1323C252.462 63.2138 253.144 63.2682 253.962 63.2682C254.807 63.2682 255.489 63.1867 255.489 63.0779C255.489 62.9691 255.216 62.1806 254.889 61.3649C254.562 60.5492 254.207 59.7607 254.125 59.6519C254.044 59.516 253.635 60.2229 253.226 61.2018C252.817 62.2078 252.462 63.0507 252.462 63.1323ZM162.219 57.0145V58.374C162.219 59.4072 162.137 59.7335 161.81 59.7335C161.592 59.7335 161.401 59.4888 161.401 59.1897C161.401 58.8906 161.129 58.4555 160.802 58.238C160.42 57.9933 159.547 57.8302 156.767 57.8302V61.6368L158.348 61.5824C159.738 61.5009 159.929 61.4465 159.984 60.9027C160.011 60.5492 160.229 60.2773 160.447 60.2773C160.774 60.2773 160.856 60.6851 160.856 62.1806C160.856 63.7033 160.774 64.0839 160.447 64.0839C160.229 64.0839 160.011 63.812 159.984 63.4858C159.929 62.9419 159.738 62.8604 156.767 62.7244V64.6277C156.767 66.5039 156.794 66.5311 157.612 66.8845C158.048 67.0749 158.43 67.3196 158.43 67.4283C158.43 67.5371 157.257 67.6187 155.812 67.6187C154.286 67.6187 153.222 67.5099 153.222 67.3468C153.222 67.2108 153.468 67.0749 153.713 67.0749C153.986 67.0749 154.367 66.9389 154.558 66.7486C154.776 66.5039 154.885 65.1444 154.885 62.3166C154.885 59.38 154.776 58.1564 154.531 57.8845C154.34 57.7214 153.986 57.5583 153.713 57.5583C153.44 57.5583 153.222 57.4495 153.222 57.2864C153.222 57.1232 154.913 57.0145 162.219 57.0145ZM179.941 57.0145C181.304 57.0145 182.394 57.1232 182.422 57.232C182.422 57.3407 182.122 57.5583 181.795 57.6942C181.195 57.9661 181.168 58.1293 181.113 61.5824C181.059 65.09 181.059 65.1987 181.713 65.8513C182.258 66.3951 182.667 66.5311 183.758 66.5311C184.521 66.5311 185.366 66.4223 185.666 66.2592C185.966 66.1232 186.348 65.6066 186.511 65.1172C186.648 64.6277 186.784 62.9147 186.784 61.3105C186.784 59.0809 186.675 58.2924 186.348 57.9661C186.13 57.7486 185.775 57.5583 185.53 57.5583C185.312 57.5583 185.121 57.4495 185.121 57.2864C185.121 57.1232 186.048 57.0145 187.302 57.0145C188.583 57.0145 189.483 57.1232 189.483 57.2864C189.483 57.4495 189.292 57.5583 189.02 57.5583C188.747 57.5311 188.392 57.6942 188.229 57.8845C188.038 58.1021 187.874 59.6519 187.82 61.8271C187.738 64.9268 187.656 65.4978 187.166 66.1776C186.838 66.5854 186.184 67.1564 185.666 67.4283C184.984 67.7818 184.276 67.8906 183.049 67.8362C181.849 67.7818 181.14 67.5915 180.595 67.1836C180.159 66.8845 179.668 66.3135 179.477 65.9601C179.259 65.5522 179.15 64.1111 179.123 62.1806C179.123 60.4676 179.041 58.7818 178.932 58.4283C178.823 58.0749 178.441 57.7486 178.114 57.667C177.787 57.6126 177.487 57.4495 177.487 57.2864C177.487 57.1232 178.496 57.0145 179.941 57.0145ZM198.207 57.0145H207.75V58.5099C207.75 59.6519 207.668 60.0054 207.341 60.0054C207.123 60.0054 206.932 59.7607 206.932 59.4616C206.932 59.1625 206.686 58.6731 206.387 58.374C206.059 58.0477 205.487 57.8302 203.933 57.8302V62.1262C203.933 65.2259 204.042 66.5039 204.287 66.7486C204.478 66.9389 204.833 67.0749 205.105 67.0749C205.378 67.0749 205.569 67.2108 205.569 67.3468C205.569 67.5099 204.533 67.6187 202.979 67.6187C201.452 67.6187 200.389 67.5099 200.389 67.3468C200.389 67.2108 200.634 67.0749 200.879 67.0749C201.152 67.0749 201.534 66.9389 201.724 66.7486C201.943 66.5039 202.052 65.1172 202.024 57.8302H200.879C200.116 57.8302 199.652 57.9933 199.407 58.3196C199.243 58.5643 199.053 59.0265 198.998 59.2984C198.944 59.5975 198.753 59.8694 198.562 59.9238C198.316 59.9782 198.207 59.5703 198.207 58.5099V57.0145ZM212.357 57.0688C214.811 57.1504 215.983 57.2864 216.42 57.5583C216.747 57.803 217.128 58.238 217.292 58.5915C217.456 58.9178 217.565 59.4888 217.565 59.8694C217.565 60.2501 217.292 60.9027 216.938 61.3105C216.583 61.7184 215.983 62.1534 214.838 62.4525L215.602 63.3498C216.011 63.8392 216.747 64.8181 217.238 65.525C217.783 66.3135 218.383 66.8573 218.792 66.9389C219.173 67.0205 219.473 67.2108 219.473 67.3468C219.473 67.5099 218.792 67.6187 216.338 67.6459L214.838 65.3075C213.693 63.5401 213.202 62.9963 212.739 62.9963C212.166 62.9963 212.112 63.1323 212.112 64.6277C212.112 65.7154 212.248 66.3951 212.521 66.667C212.766 66.8845 213.121 67.0749 213.339 67.0749C213.584 67.0749 213.748 67.2108 213.748 67.3468C213.748 67.5099 212.766 67.6187 211.294 67.6187C209.958 67.6187 208.84 67.5371 208.84 67.4283C208.84 67.3196 209.14 67.1021 209.467 66.9389C210.067 66.667 210.094 66.5311 210.203 57.8302L209.522 57.6942C209.167 57.6126 208.868 57.4223 208.868 57.2592C208.895 57.0688 209.985 56.9873 212.357 57.0688ZM212.112 62.1806C213.72 61.9359 214.457 61.6912 214.784 61.4737C215.247 61.1746 215.411 60.8483 215.411 59.951C215.411 59.1897 215.247 58.6187 214.92 58.3196C214.62 58.0205 213.993 57.8573 213.284 57.8302H212.112V62.1806ZM235.286 57.0145C236.758 57.0145 237.74 57.1232 237.74 57.2864C237.74 57.4495 237.604 57.5583 237.413 57.5583C237.222 57.5854 236.84 57.7758 236.595 58.0477C236.159 58.4555 236.104 59.0265 236.104 62.3166C236.104 65.0356 236.213 66.232 236.458 66.4767C236.649 66.667 237.358 66.8302 238.012 66.8302C238.803 66.8302 239.512 66.6398 239.921 66.3135C240.303 66.0416 240.712 65.4706 240.821 65.09C240.93 64.6821 241.202 64.3558 241.42 64.3558C241.748 64.3558 241.802 64.6006 241.693 65.3891C241.611 65.9329 241.475 66.667 241.42 67.0205C241.311 67.6187 241.23 67.6187 237.058 67.6187C234.741 67.6187 232.832 67.5371 232.832 67.4283C232.832 67.3196 233.132 67.1021 233.459 66.9389C234.059 66.667 234.059 66.5854 234.059 62.3166C234.059 58.0749 234.059 57.9661 233.459 57.6942C233.132 57.5583 232.832 57.3407 232.832 57.232C232.832 57.1232 233.95 57.0145 235.286 57.0145ZM245.237 57.0145C246.791 57.0145 247.827 57.1232 247.827 57.2864C247.827 57.4495 247.609 57.5583 247.337 57.5583C247.091 57.5583 246.71 57.7214 246.519 57.9117C246.301 58.1293 246.192 59.4888 246.192 62.3166C246.192 65.2531 246.301 66.5039 246.546 66.7486C246.737 66.9389 247.091 67.0749 247.364 67.0749C247.637 67.0749 247.827 67.2108 247.827 67.3468C247.827 67.5099 246.791 67.6187 245.237 67.6187C243.711 67.6187 242.647 67.5099 242.647 67.3468C242.647 67.2108 242.893 67.0749 243.138 67.0749C243.411 67.0749 243.792 66.9389 243.983 66.7486C244.201 66.5039 244.31 65.1444 244.31 62.3166C244.31 59.38 244.201 58.1564 243.956 57.8845C243.765 57.7214 243.411 57.5583 243.138 57.5583C242.865 57.5583 242.647 57.4495 242.647 57.2864C242.647 57.1232 243.711 57.0145 245.237 57.0145ZM5.99802 57.5583H119.688V58.9178H5.99802V57.5583ZM2.99901 61.9087H122.687V63.2682H2.99901V61.9087ZM0 66.2592H27.6727C47.139 66.2592 55.7816 66.3407 56.7904 66.5583C57.581 66.7486 58.8079 67.1564 59.5168 67.5099C60.2256 67.8634 61.2616 68.6247 62.8157 70.2018L63.9335 69.1413C64.5333 68.5432 65.8419 67.7002 68.5683 66.3951H125.55L125.686 67.6187L97.277 67.7002C70.6131 67.7546 68.7864 67.7818 67.7504 68.2441C67.1506 68.516 66.1964 69.0598 65.6238 69.4676C65.0513 69.8755 64.2606 70.664 63.8517 71.235C63.4427 71.806 63.0065 72.2682 62.8429 72.2682C62.7066 72.2682 62.2431 71.806 61.8614 71.235C61.4525 70.664 60.6618 69.8755 60.0893 69.4676C59.5168 69.0598 58.5353 68.516 57.9355 68.2441C56.9267 67.7818 55.1 67.7546 0 67.6187V66.2592Z" fill="black"/>
</svg>
