<svg xmlns="http://www.w3.org/2000/svg" width="51.02" height="52.49" viewBox="0 0 51.02 52.49">
  <title>nla_logo</title>
  <g>
    <g>
      <path d="M2.91,0H48.12a7.06,7.06,0,0,1,0,.92H2.91Z" fill="#fff"/>
      <path d="M23.62,7V17.25a4.32,4.32,0,0,0-.51,0V18.7h4.58V17.21h-.51V7h-1V17.26H24.64V7ZM0,1.42H51V1.6l-2.83,3h-.87V17.18H47V6.24L47,6.06l-1,.94a.92.92,0,0,1-.07-.52h-.8V17.26H42.88V7H42V4.63s-.9,0-1.1,0v18H39.33V19.88H38.16v2.77H36.42V19.79h-.73v2.86h-.15V18.78h4.58V17.26h-.8V7H38.16V17.26H36.34V7h-.65V17.26h-.15V4.63h-.87v18H29.29V18.78H34V17.26h-.8V7H32.05V17.26h-1.6V7.11h-.79V17.26h-.37V4.8a9.27,9.27,0,0,0-.95,0V22.65H22.46v-18h-.94V17.21h-.37V7a6.63,6.63,0,0,1-.8,0V17.26H18.9V7.08a8.18,8.18,0,0,0-1.31,0V17.26h-.8c0,.77,0,1.14,0,1.52h4.8v3.87H16.21V4.72h-1V17.18h-.07V6.91h-.73V17.18H12.72V7.08H11.49v10.1s-.88,0-.88,0v1.44h4.73v4h-.15V19.88s-.63,0-.73,0v2.76H12.79V19.88c-.48,0-.75,0-1.23,0v2.77H10V4.72h-1v2.2H8V17.18H5.89V6.57c-.16,0-.62,0-.87,0V7c-.36-.28-.57-.51-1-.85v11H3.78V4.52a8,8,0,0,1-1,0L0,1.52Z" fill="#fff"/>
    </g>
    <rect x="3.78" y="18.78" width="0.22" height="3.87" fill="#fff"/>
    <polygon points="9.02 18.78 9.02 19.88 8.07 19.88 8.07 22.65 5.96 22.65 5.96 19.38 4.36 18.78 9.02 18.78" fill="#fff"/>
    <polygon points="41.94 18.78 46.66 18.78 45.09 19.88 45.07 22.65 42.88 22.65 42.88 19.79 41.94 19.79 41.94 18.78" fill="#fff"/>
    <rect x="47.03" y="18.78" width="0.29" height="3.87" fill="#fff"/>
    <rect x="1.74" y="23.33" width="47.54" height="0.33" fill="#fff"/>
    <rect x="1.24" y="24.43" width="48.62" height="0.33" fill="#fff"/>
    <rect x="0.73" y="25.52" width="49.72" height="0.33" fill="#fff"/>
    <rect x="0.15" y="26.62" width="50.81" height="0.25" fill="#fff"/>
    <g>
      <path d="M6.81,35.94v-4.5c0-.52-.16-.6-.71-.6H6v-.27c.36,0,.73,0,1.09,0s.72,0,1.07,0v.27H8c-.57,0-.74.08-.74.6v5.24l0,.33-.72-.12L2.17,31.58V36c0,.53.18.61.74.61h.15v.27c-.35,0-.71,0-1.08,0s-.72,0-1.08,0V36.6H1c.55,0,.72-.08.72-.61V31.44c0-.52-.15-.6-.65-.61H1v-.27a6.74,6.74,0,0,0,.79,0,6.62,6.62,0,0,0,.77,0Z" fill="#fff"/>
      <path d="M12.19,34.4l-1.13-2.69L9.93,34.4Zm1.42,1.24a2.31,2.31,0,0,0,.46.81.78.78,0,0,0,.5.15v.27c-.4,0-.8,0-1.2,0s-.81,0-1.2,0V36.6a1.38,1.38,0,0,0,.67-.12c.13-.07.14-.21.07-.37l-.55-1.32H9.79a10.26,10.26,0,0,0-.61,1.52c0,.29.44.25.77.29v.27c-.34,0-.69,0-1,0s-.7,0-1,0V36.6c.51-.1.57,0,.79-.48l.44-.93,1.22-2.74c.29-.64.59-1.3.82-2h.29Z" fill="#fff"/>
      <path d="M16.43,31.92c0-.34,0-.63,0-.9l-1.4,0c-.18,0-.29,0-.31.28a4.57,4.57,0,0,0-.1.69h-.27c0-.17,0-.33,0-.51s0-.63-.05-1c.86,0,1.72,0,2.61,0s1.73,0,2.61,0c0,.33,0,.65-.05,1V32h-.28a4.57,4.57,0,0,0-.1-.69c0-.24-.12-.27-.31-.28l-1.41,0c0,.27,0,.56,0,.9v3.87c0,.71,0,.77.86.81v.27c-.43,0-.86,0-1.3,0s-.87,0-1.28,0V36.6c.87,0,.86-.1.86-.81Z" fill="#fff"/>
      <path d="M21.81,35.79c0,.71,0,.77.86.81v.27c-.44,0-.86,0-1.31,0s-.86,0-1.27,0V36.6c.87,0,.86-.1.86-.81V31.64c0-.7,0-.76-.86-.81v-.27c.41,0,.83,0,1.27,0s.87,0,1.31,0v.27c-.87.05-.86.11-.86.81Z" fill="#fff"/>
      <path d="M29.05,33.8c0-1.79-.8-3-2.48-3s-2.29,1.1-2.29,2.57.74,3.24,2.53,3.24c1.51-.1,2.24-1.16,2.24-2.82m1-.29a3.46,3.46,0,0,1-3.5,3.5,3.11,3.11,0,0,1-3.21-3.32,3.17,3.17,0,0,1,3.4-3.27c1.94,0,3.31,1.09,3.31,3.09" fill="#fff"/>
      <path d="M36.23,35.94v-4.5c0-.52-.16-.6-.71-.6h-.15v-.27c.36,0,.73,0,1.09,0s.72,0,1.07,0v.27h-.14c-.57,0-.74.08-.74.6v5.24l0,.33L36,36.89l-4.37-5.31V36c0,.53.18.61.75.61h.14v.27c-.35,0-.71,0-1.07,0s-.73,0-1.09,0V36.6h.14c.56,0,.72-.08.72-.61V31.44c0-.52-.15-.6-.65-.61H30.4v-.27a6.85,6.85,0,0,0,.79,0,6.62,6.62,0,0,0,.77,0Z" fill="#fff"/>
      <path d="M42,34.4l-1.13-2.69L39.72,34.4Zm1.42,1.24a2,2,0,0,0,.46.81.75.75,0,0,0,.49.15v.27c-.4,0-.79,0-1.2,0s-.8,0-1.2,0V36.6a1.42,1.42,0,0,0,.68-.12c.12-.07.13-.21.06-.37l-.55-1.32H39.57a10.16,10.16,0,0,0-.6,1.52c0,.29.44.25.76.29v.27c-.34,0-.68,0-1,0s-.69,0-1,0V36.6c.5-.1.56,0,.78-.48l.44-.93,1.22-2.74c.29-.64.59-1.3.83-2h.28Z" fill="#fff"/>
      <path d="M46.5,36.08l0,.33a10.37,10.37,0,0,0,1.27.05,5.49,5.49,0,0,0,1.46-.15,2,2,0,0,0,.09-.29l.21-.76.29,0c0,.12-.06.36-.09.6l-.1.95a13.74,13.74,0,0,1-1.4,0c-.51,0-1,0-1.55,0s-1,0-1.55,0V36.6c.42-.07.49-.33.49-1.05V31.64c0-.7,0-.76-.86-.81v-.27c.4,0,.83,0,1.27,0s.87,0,1.3,0v.27c-.86.05-.86.11-.86.81Z" fill="#fff"/>
      <path d="M3,45.22l0,.4a14.74,14.74,0,0,0,1.52.05,6.29,6.29,0,0,0,1.73-.18c0-.1.07-.22.11-.34l.24-.91.35,0c0,.15-.07.43-.11.72l-.12,1.13c-.34.06-1,0-1.67.06s-1.21-.06-1.84-.06-1.23,0-1.85.06v-.33c.51-.08.58-.4.58-1.26V39.93c0-.84,0-.91-1-1v-.33c.48,0,1,.06,1.52.06s1,0,1.55-.06V39c-1,.05-1,.12-1,1Z" fill="#fff"/>
      <path d="M10.18,44.87c0,.84,0,.92,1,1v.33c-.52,0-1-.06-1.55-.06s-1,0-1.52.06v-.33c1-.05,1-.13,1-1V39.93c0-.84,0-.91-1-1v-.33c.49,0,1,.06,1.52.06s1,0,1.55-.06V39c-1,.05-1,.12-1,1Z" fill="#fff"/>
      <path d="M14.59,45.62a5.83,5.83,0,0,0,1,.09,1.75,1.75,0,0,0,1.88-1.86c0-1.18-.75-1.64-2.13-1.64h-.72Zm0-3.86a6.19,6.19,0,0,0,.76.05c.94,0,1.77-.38,1.77-1.44s-.72-1.3-1.63-1.3a2.61,2.61,0,0,0-.85.12,5.21,5.21,0,0,0-.05.8Zm-1-1.83c0-.89-.2-.94-1-1v-.33c.6,0,1.22,0,1.83,0s1.23,0,1.83,0c1,0,1.9.37,1.9,1.51a2,2,0,0,1-1.79,1.76c1.09.05,2.16.5,2.16,1.76a2.79,2.79,0,0,1-3.16,2.5,11.46,11.46,0,0,0-1.17-.06,11.31,11.31,0,0,0-1.17.06v-.33c.45-.12.52-.35.52-.75Z" fill="#fff"/>
      <path d="M20.65,39.93c0-.84,0-.91-1-1v-.33c.6,0,1.23,0,1.86,0s1.26,0,1.89,0c1.48-.07,2.17.73,2.17,1.64a2.32,2.32,0,0,1-2.1,2.08l2.44,3.18a.91.91,0,0,0,.62.3v.33a4.49,4.49,0,0,0-.73-.06,4.62,4.62,0,0,0-.74.06c-.17-.23-.29-.42-.44-.61L22,42.27l0-.16a4.06,4.06,0,0,0,1,0,1.59,1.59,0,0,0,1.4-1.51c0-1.16-.86-1.5-1.66-1.5a3.91,3.91,0,0,0-1.07.14,2.17,2.17,0,0,0-.07.74v4.94c0,.84,0,.92,1,1v.33c-.52,0-1-.06-1.55-.06s-1,0-1.52.06v-.33c1-.05,1-.13,1-1Z" fill="#fff"/>
      <path d="M32.06,43.22,30.71,40l-1.34,3.21Zm1.69,1.48a2.62,2.62,0,0,0,.55,1,1,1,0,0,0,.59.18v.33c-.47,0-1-.06-1.43-.06s-1,0-1.43.06v-.33a1.9,1.9,0,0,0,.8-.14c.16-.08.17-.26.08-.45l-.66-1.57H29.2a12.47,12.47,0,0,0-.73,1.81c0,.35.53.3.92.35v.33c-.41,0-.82-.06-1.24-.06s-.83,0-1.24.06v-.33c.61-.12.68,0,.94-.58l.53-1.11,1.45-3.25c.35-.76.7-1.55,1-2.32h.35Z" fill="#fff"/>
      <path d="M36.86,39.93c0-.84,0-.91-1-1v-.33c.6,0,1.22,0,1.86,0s1.26,0,1.88,0c1.49-.07,2.18.73,2.18,1.64a2.32,2.32,0,0,1-2.1,2.08l2.44,3.18a.89.89,0,0,0,.62.3v.33a4.49,4.49,0,0,0-.73-.06,4.62,4.62,0,0,0-.74.06c-.17-.23-.29-.42-.44-.61l-2.56-3.29,0-.16a4.09,4.09,0,0,0,1,0,1.59,1.59,0,0,0,1.4-1.51c0-1.16-.86-1.5-1.66-1.5a3.85,3.85,0,0,0-1.07.14,2.17,2.17,0,0,0-.07.74v4.94c0,.84,0,.92,1,1v.33c-.51,0-1-.06-1.55-.06s-1,0-1.51.06v-.33c1-.05,1-.13,1-1Z" fill="#fff"/>
      <path d="M46.48,42.44l1.11-1.75c.41-.69.81-1.36,1.16-2h.86v.16A22.44,22.44,0,0,0,47,42.62a1.86,1.86,0,0,0-.15.82v1.43c0,.84,0,.92,1,1v.33c-.51,0-1-.06-1.55-.06s-1,0-1.51.06v-.33c1-.05,1-.13,1-1V43.29a.7.7,0,0,0-.06-.33L44.44,40.7c-.35-.61-1-1.67-1.77-1.58V38.8l1.14-.22c.31-.06.47.13.66.35s.32.46.47.7Z" fill="#fff"/>
      <path d="M5,50.34c0-1.19-.54-2-1.66-2s-1.52.74-1.52,1.72.49,2.16,1.69,2.16c1-.07,1.49-.77,1.49-1.89m.65-.18a2.31,2.31,0,0,1-2.33,2.33,2.07,2.07,0,0,1-2.15-2.22A2.11,2.11,0,0,1,3.41,48.1a2,2,0,0,1,2.21,2.06" fill="#fff"/>
      <path d="M6.84,48.91c0-.46,0-.51-.57-.54v-.18c.36,0,.72,0,1.1,0s.74,0,1.1,0a9.27,9.27,0,0,1,1,0,2,2,0,0,0-.09.58c0,.13,0,.23,0,.36H9.17a2.47,2.47,0,0,0-.08-.59,3,3,0,0,0-.9-.1,5.71,5.71,0,0,0-.75,0,1.87,1.87,0,0,0,0,.38v1.24c1.32,0,1.4.09,1.41-.5H9V51H8.82c0-.68-.05-.65-1.41-.6v1.27c0,.47,0,.51.58.54v.18l-.87,0c-.3,0-.58,0-.85,0v-.18c.58,0,.57-.07.57-.54Z" fill="#fff"/>
      <path d="M14.66,50.75,13.91,49l-.75,1.8Zm.95.83a1.46,1.46,0,0,0,.31.54.56.56,0,0,0,.33.1v.18c-.27,0-.53,0-.8,0s-.54,0-.81,0v-.18a1.17,1.17,0,0,0,.46-.08c.08,0,.09-.14,0-.25L14.77,51H13.06a7.28,7.28,0,0,0-.4,1c0,.2.29.17.51.2v.18c-.23,0-.46,0-.7,0l-.69,0v-.18c.34-.06.38,0,.52-.32l.3-.63.81-1.82c.2-.43.4-.87.55-1.3h.2Z" fill="#fff"/>
      <path d="M17.56,51c0,.86.44,1.1,1.23,1.1a1.23,1.23,0,0,0,1-.41,1.85,1.85,0,0,0,.24-1V48.78c0-.35-.11-.41-.48-.41h-.1v-.18l.73,0q.36,0,.72,0v.18h-.1c-.38,0-.49.06-.49.41V51a1.57,1.57,0,0,1-.27.88,1.46,1.46,0,0,1-.63.49,3.17,3.17,0,0,1-.81.12,1.58,1.58,0,0,1-1.5-.62,1.44,1.44,0,0,1-.15-.79V48.91c0-.46,0-.51-.57-.54v-.18c.27,0,.56,0,.85,0s.58,0,.87,0v.18c-.58,0-.57.08-.57.54Z" fill="#fff"/>
      <path d="M23.85,49.2a1,1,0,0,0-.06-.48,1.12,1.12,0,0,0-.88-.35.87.87,0,0,0-.91.86c0,1.31,2.4.22,2.4,1.74a1.63,1.63,0,0,1-1.82,1.52,2.58,2.58,0,0,1-1-.23c0-.23,0-.52,0-.75v-.17h.2v.29a.39.39,0,0,0,.09.31,1.45,1.45,0,0,0,.93.27,1,1,0,0,0,1.07-.91c0-1.46-2.38-.1-2.38-1.85A1.39,1.39,0,0,1,23,48.1a3.38,3.38,0,0,1,1.17.27,1.54,1.54,0,0,0,0,.3c0,.18,0,.35-.05.53Z" fill="#fff"/>
      <path d="M26.45,49.1c0-.23,0-.42,0-.6l-.93,0c-.13,0-.19,0-.21.18a3.2,3.2,0,0,0-.06.46H25c0-.11,0-.22,0-.34s0-.42,0-.64c.57,0,1.14,0,1.73,0s1.16,0,1.75,0c0,.22,0,.43,0,.64v.34h-.18a3.17,3.17,0,0,0-.07-.46c0-.16-.08-.18-.21-.18l-.94,0a5.53,5.53,0,0,0,0,.6v2.58c0,.47,0,.51.57.54v.18c-.29,0-.57,0-.87,0s-.58,0-.85,0v-.18c.58,0,.58-.07.58-.54Z" fill="#fff"/>
      <path d="M29.67,48.91c0-.46,0-.51-.57-.54v-.18c.34,0,.69,0,1,0s.71,0,1.06,0c.83,0,1.22.41,1.22.91a1.3,1.3,0,0,1-1.18,1.17l1.37,1.78a.55.55,0,0,0,.34.17v.18a2.69,2.69,0,0,0-.4,0,2.63,2.63,0,0,0-.41,0c-.1-.12-.17-.24-.25-.34l-1.44-1.84,0-.09a2.54,2.54,0,0,0,.55,0,.89.89,0,0,0,.78-.84.81.81,0,0,0-.92-.84,2.18,2.18,0,0,0-.6.08,1.15,1.15,0,0,0,0,.41v2.77c0,.47,0,.51.57.54v.18c-.29,0-.57,0-.87,0s-.58,0-.85,0v-.18c.58,0,.57-.07.57-.54Z" fill="#fff"/>
      <path d="M36.31,50.75,35.55,49l-.75,1.8Zm.94.83a1.62,1.62,0,0,0,.31.54.56.56,0,0,0,.33.1v.18c-.27,0-.53,0-.8,0s-.54,0-.8,0v-.18a1.12,1.12,0,0,0,.45-.08c.08,0,.09-.14,0-.25L36.41,51H34.7a7.28,7.28,0,0,0-.4,1c0,.2.29.17.51.2v.18l-.69,0c-.24,0-.47,0-.7,0v-.18c.34-.06.38,0,.53-.32l.29-.63.82-1.82c.19-.43.39-.87.55-1.3h.19Z" fill="#fff"/>
      <path d="M39.69,51.87v.22a7.77,7.77,0,0,0,.85,0,3.48,3.48,0,0,0,1-.1,2,2,0,0,0,.07-.19l.13-.51h.2c0,.09,0,.25-.06.41l-.07.63a8.08,8.08,0,0,1-.93,0c-.34,0-.69,0-1,0s-.69,0-1,0v-.18c.28,0,.32-.22.32-.71v-2.6c0-.46,0-.51-.57-.54v-.18c.27,0,.56,0,.85,0s.58,0,.87,0v.18c-.58,0-.57.08-.57.54Z" fill="#fff"/>
      <path d="M43.73,51.68c0,.47,0,.51.57.54v.18c-.29,0-.57,0-.86,0s-.58,0-.85,0v-.18c.57,0,.57-.07.57-.54V48.91c0-.46,0-.51-.57-.54v-.18c.27,0,.55,0,.85,0s.57,0,.86,0v.18c-.58,0-.57.08-.57.54Z" fill="#fff"/>
      <path d="M47.79,50.75,47,49l-.75,1.8Zm1,.83a1.44,1.44,0,0,0,.3.54.62.62,0,0,0,.34.1v.18c-.27,0-.53,0-.8,0s-.54,0-.81,0v-.18a1.09,1.09,0,0,0,.45-.08c.09,0,.09-.14.05-.25L47.9,51H46.19a6.21,6.21,0,0,0-.4,1c0,.2.29.17.51.2v.18c-.23,0-.46,0-.7,0l-.69,0v-.18c.34-.06.38,0,.53-.32l.29-.63.81-1.82c.2-.43.39-.87.55-1.3h.19Z" fill="#fff"/>
    </g>
  </g>
</svg>
