<?xml version="1.0" encoding="UTF-8"?>
<svg width="400px" height="400px" viewBox="0 0 400 400" version="1.1" xmlns="http://www.w3.org/2000/svg" xmlns:xlink="http://www.w3.org/1999/xlink">
    <title>Trove keyhole</title>
    <g id="Trove-keyhole" stroke="none" stroke-width="1" fill="none" fill-rule="evenodd">
        <circle id="Oval" fill="#FFFFFF" cx="200" cy="200" r="200"></circle>
        <g id="keyhole" transform="translate(11.000000, 11.000000)" fill-rule="nonzero">
            <path d="M230.049266,290.061201 L249.543313,368.397053 C230.807789,374.597381 210.706923,378 189.847534,378 C168.988144,378 148.887278,374.597381 130.075901,368.397053 L149.645801,290.061201 L156.017397,264.352524 C127.041808,251.422572 106.789238,222.462503 106.789238,188.738767 C106.789238,143.068058 143.956877,105.941704 189.847534,105.941704 C235.73819,105.941704 272.90583,142.992445 272.90583,188.738767 C272.90583,222.462503 252.653259,251.422572 223.677671,264.352524 L230.049266,290.061201 Z" id="Path" fill="#FFFFFF"></path>
            <path d="M189,0 C84.5964,0 0,84.532037 0,188.856204 C0,226.023105 10.7352,260.697104 29.3328,289.856502 L148.932,289.856502 L155.2824,264.172058 C126.4032,251.254294 106.218,222.321524 106.218,188.629577 C106.218,143.001918 143.262,105.910559 189,105.910559 C234.738,105.910559 271.782,142.926375 271.782,188.629577 C271.782,222.321524 251.5968,251.254294 222.7176,264.172058 L229.068,289.856502 L348.6672,289.856502 C367.2648,260.697104 378,226.023105 378,188.856204 C378,84.532037 293.4036,0 189,0 Z" id="Path" fill="#008944"></path>
            <g id="Group" transform="translate(29.663677, 289.856502)" fill="#2D004B">
                <path d="M99.8720787,76.9522447 L119.332098,0 L0.0074850117,0 C23.0125463,35.8763843 58.2366892,63.3593289 99.8720787,76.9522447 Z" id="Path"></path>
                <path d="M218.806862,76.9522447 C260.442251,63.3593289 295.666394,35.8763843 318.746882,0 L199.346843,0 L218.806862,76.9522447 Z" id="Path"></path>
            </g>
        </g>
    </g>
</svg>