<?xml version="1.0" encoding="UTF-8"?>
<svg width="46px" height="36px" viewBox="0 0 576 448" version="1.1" xmlns="http://www.w3.org/2000/svg" xmlns:xlink="http://www.w3.org/1999/xlink">
    <title>two-level-child</title>
    <g id="two-level-child" stroke="none" stroke-width="1" fill="none" fill-rule="evenodd">
        <g id="sitemap-light" fill-rule="nonzero">
            <path d="M208,112 L208,48 C208,21.49 229.5,0 256,0 L320,0 C346.5,0 368,21.49 368,48 L368,112 C368,138.5 346.5,160 320,160 L304,160 L304,208 L464,208 C490.5,208 512,229.5 512,256 L512,288 L528,288 C554.5,288 576,309.5 576,336 L576,400 C576,426.5 554.5,448 528,448 L464,448 C437.5,448 416,426.5 416,400 L416,336 C416,309.5 437.5,288 464,288 L480,288 L480,256 C480,247.2 472.8,240 464,240 L304,240 L304,288 L320,288 C346.5,288 368,309.5 368,336 L368,400 C368,426.5 346.5,448 320,448 L256,448 C229.5,448 208,426.5 208,400 L208,336 C208,309.5 229.5,288 256,288 L272,288 L272,240 L112,240 C103.2,240 96,247.2 96,256 L96,288 L112,288 C138.5,288 160,309.5 160,336 L160,400 C160,426.5 138.5,448 112,448 L48,448 C21.49,448 0,426.5 0,400 L0,336 C0,309.5 21.49,288 48,288 L64,288 L64,256 C64,229.5 85.49,208 112,208 L272,208 L272,160 L256,160 C229.5,160 208,138.5 208,112 Z M320,32 L256,32 C247.2,32 240,39.16 240,48 L240,112 C240,120.8 247.2,128 256,128 L320,128 C328.8,128 336,120.8 336,112 L336,48 C336,39.16 328.8,32 320,32 Z M32,336 L32,400 C32,408.8 39.16,416 48,416 L112,416 C120.8,416 128,408.8 128,400 L128,336 C128,327.2 120.8,320 112,320 L48,320 C39.16,320 32,327.2 32,336 Z M240,336 L240,400 C240,408.8 247.2,416 256,416 L320,416 C328.8,416 336,408.8 336,400 L336,336 C336,327.2 328.8,320 320,320 L256,320 C247.2,320 240,327.2 240,336 Z M448,336 L448,400 C448,408.8 455.2,416 464,416 L528,416 C536.8,416 544,408.8 544,400 L544,336 C544,327.2 536.8,320 528,320 L464,320 C455.2,320 448,327.2 448,336 Z" id="Shape" fill="#000000"></path>
            <rect id="Rectangle" fill="#E03100" x="448" y="320" width="96" height="96" rx="16"></rect>
            <rect id="Rectangle" fill="#FFFFFF" x="240" y="320" width="96" height="96" rx="16"></rect>
            <rect id="Rectangle" fill="#FFFFFF" x="240" y="32" width="96" height="96" rx="16"></rect>
            <rect id="Rectangle" fill="#FFFFFF" x="32" y="320" width="96" height="96" rx="16"></rect>
        </g>
    </g>
</svg>
